<mxfile host="app.diagrams.net" modified="2023-06-14T07:25:47.187Z" agent="Mozilla/5.0 (Windows NT 10.0; Win64; x64) AppleWebKit/537.36 (KHTML, like Gecko) Chrome/114.0.0.0 Safari/537.36" etag="5qL9JMvtZ30Qrss1NpQx" version="21.3.8" type="github">
  <diagram name="Page-1" id="0783ab3e-0a74-02c8-0abd-f7b4e66b4bec">
    <mxGraphModel dx="1434" dy="777" grid="1" gridSize="10" guides="1" tooltips="1" connect="1" arrows="1" fold="1" page="1" pageScale="1" pageWidth="1100" pageHeight="850" background="none" math="0" shadow="0">
      <root>
        <mxCell id="0" />
        <mxCell id="1" parent="0" />
        <mxCell id="ShEfWIWbOcaYMvMY--nj-66" value="IOT FLOW DATA" style="text;align=center;fontStyle=1;verticalAlign=middle;spacingLeft=3;spacingRight=3;strokeColor=none;rotatable=0;points=[[0,0.5],[1,0.5]];portConstraint=eastwest;html=1;" parent="1" vertex="1">
          <mxGeometry x="510" y="20" width="80" height="26" as="geometry" />
        </mxCell>
        <mxCell id="k7gf65FouDBsnr_o0FSd-72" value="" style="edgeStyle=orthogonalEdgeStyle;rounded=0;orthogonalLoop=1;jettySize=auto;html=1;entryX=0.5;entryY=0;entryDx=0;entryDy=0;" parent="1" source="ShEfWIWbOcaYMvMY--nj-2" target="k7gf65FouDBsnr_o0FSd-111" edge="1">
          <mxGeometry relative="1" as="geometry">
            <mxPoint x="153.5203094777562" y="610" as="targetPoint" />
          </mxGeometry>
        </mxCell>
        <mxCell id="k7gf65FouDBsnr_o0FSd-106" value="" style="group" parent="1" vertex="1" connectable="0">
          <mxGeometry x="40" y="80" width="300" height="370" as="geometry" />
        </mxCell>
        <mxCell id="ShEfWIWbOcaYMvMY--nj-1" value="Jig 1" style="html=1;whiteSpace=wrap;" parent="k7gf65FouDBsnr_o0FSd-106" vertex="1">
          <mxGeometry x="10" y="50" width="50" height="50" as="geometry" />
        </mxCell>
        <mxCell id="ShEfWIWbOcaYMvMY--nj-2" value="MCN Line Series" style="shape=umlFrame;whiteSpace=wrap;html=1;pointerEvents=0;width=110;height=30;" parent="k7gf65FouDBsnr_o0FSd-106" vertex="1">
          <mxGeometry width="300" height="370" as="geometry" />
        </mxCell>
        <mxCell id="ShEfWIWbOcaYMvMY--nj-3" value="Jig 2" style="html=1;whiteSpace=wrap;" parent="k7gf65FouDBsnr_o0FSd-106" vertex="1">
          <mxGeometry x="70" y="50" width="50" height="50" as="geometry" />
        </mxCell>
        <mxCell id="ShEfWIWbOcaYMvMY--nj-4" value="Jig 3" style="html=1;whiteSpace=wrap;" parent="k7gf65FouDBsnr_o0FSd-106" vertex="1">
          <mxGeometry x="130" y="50" width="50" height="50" as="geometry" />
        </mxCell>
        <mxCell id="ShEfWIWbOcaYMvMY--nj-17" value="Jig n" style="html=1;whiteSpace=wrap;" parent="k7gf65FouDBsnr_o0FSd-106" vertex="1">
          <mxGeometry x="240" y="50" width="50" height="50" as="geometry" />
        </mxCell>
        <mxCell id="ShEfWIWbOcaYMvMY--nj-20" value="" style="endArrow=none;dashed=1;html=1;dashPattern=1 3;strokeWidth=2;rounded=0;exitX=1;exitY=0.5;exitDx=0;exitDy=0;entryX=0;entryY=0.5;entryDx=0;entryDy=0;" parent="k7gf65FouDBsnr_o0FSd-106" source="ShEfWIWbOcaYMvMY--nj-4" target="ShEfWIWbOcaYMvMY--nj-17" edge="1">
          <mxGeometry width="50" height="50" relative="1" as="geometry">
            <mxPoint x="490" y="50" as="sourcePoint" />
            <mxPoint x="540" as="targetPoint" />
          </mxGeometry>
        </mxCell>
        <mxCell id="ShEfWIWbOcaYMvMY--nj-58" value="PLC" style="swimlane;fontStyle=1;align=center;verticalAlign=top;childLayout=stackLayout;horizontal=1;startSize=26;horizontalStack=0;resizeParent=1;resizeParentMax=0;resizeLast=0;collapsible=1;marginBottom=0;whiteSpace=wrap;html=1;" parent="k7gf65FouDBsnr_o0FSd-106" vertex="1">
          <mxGeometry x="60" y="172" width="180" height="190" as="geometry" />
        </mxCell>
        <mxCell id="ShEfWIWbOcaYMvMY--nj-59" value="500 address" style="text;strokeColor=none;fillColor=none;align=left;verticalAlign=top;spacingLeft=4;spacingRight=4;overflow=hidden;rotatable=0;points=[[0,0.5],[1,0.5]];portConstraint=eastwest;whiteSpace=wrap;html=1;" parent="ShEfWIWbOcaYMvMY--nj-58" vertex="1">
          <mxGeometry y="26" width="180" height="26" as="geometry" />
        </mxCell>
        <mxCell id="ShEfWIWbOcaYMvMY--nj-76" value="IP: 27.78.10.18" style="text;strokeColor=none;fillColor=none;align=left;verticalAlign=top;spacingLeft=4;spacingRight=4;overflow=hidden;rotatable=0;points=[[0,0.5],[1,0.5]];portConstraint=eastwest;whiteSpace=wrap;html=1;" parent="ShEfWIWbOcaYMvMY--nj-58" vertex="1">
          <mxGeometry y="52" width="180" height="26" as="geometry" />
        </mxCell>
        <mxCell id="k7gf65FouDBsnr_o0FSd-30" value="Ethernet communication" style="text;strokeColor=none;fillColor=none;align=left;verticalAlign=top;spacingLeft=4;spacingRight=4;overflow=hidden;rotatable=0;points=[[0,0.5],[1,0.5]];portConstraint=eastwest;whiteSpace=wrap;html=1;" parent="ShEfWIWbOcaYMvMY--nj-58" vertex="1">
          <mxGeometry y="78" width="180" height="26" as="geometry" />
        </mxCell>
        <mxCell id="ShEfWIWbOcaYMvMY--nj-60" value="" style="line;strokeWidth=1;fillColor=none;align=left;verticalAlign=middle;spacingTop=-1;spacingLeft=3;spacingRight=3;rotatable=0;labelPosition=right;points=[];portConstraint=eastwest;strokeColor=inherit;" parent="ShEfWIWbOcaYMvMY--nj-58" vertex="1">
          <mxGeometry y="104" width="180" height="8" as="geometry" />
        </mxCell>
        <mxCell id="ShEfWIWbOcaYMvMY--nj-61" value="Signal: NG-READY-BUSY" style="text;strokeColor=none;fillColor=none;align=left;verticalAlign=top;spacingLeft=4;spacingRight=4;overflow=hidden;rotatable=0;points=[[0,0.5],[1,0.5]];portConstraint=eastwest;whiteSpace=wrap;html=1;" parent="ShEfWIWbOcaYMvMY--nj-58" vertex="1">
          <mxGeometry y="112" width="180" height="26" as="geometry" />
        </mxCell>
        <mxCell id="ShEfWIWbOcaYMvMY--nj-80" value="Maximum jig: 20 jigs" style="text;strokeColor=none;fillColor=none;align=left;verticalAlign=top;spacingLeft=4;spacingRight=4;overflow=hidden;rotatable=0;points=[[0,0.5],[1,0.5]];portConstraint=eastwest;whiteSpace=wrap;html=1;" parent="ShEfWIWbOcaYMvMY--nj-58" vertex="1">
          <mxGeometry y="138" width="180" height="26" as="geometry" />
        </mxCell>
        <mxCell id="ShEfWIWbOcaYMvMY--nj-81" value="Line number hardcoded in PLC" style="text;strokeColor=none;fillColor=none;align=left;verticalAlign=top;spacingLeft=4;spacingRight=4;overflow=hidden;rotatable=0;points=[[0,0.5],[1,0.5]];portConstraint=eastwest;whiteSpace=wrap;html=1;" parent="ShEfWIWbOcaYMvMY--nj-58" vertex="1">
          <mxGeometry y="164" width="180" height="26" as="geometry" />
        </mxCell>
        <mxCell id="k7gf65FouDBsnr_o0FSd-21" style="edgeStyle=orthogonalEdgeStyle;rounded=0;orthogonalLoop=1;jettySize=auto;html=1;exitX=0.5;exitY=1;exitDx=0;exitDy=0;entryX=0.5;entryY=0;entryDx=0;entryDy=0;" parent="k7gf65FouDBsnr_o0FSd-106" source="ShEfWIWbOcaYMvMY--nj-1" target="ShEfWIWbOcaYMvMY--nj-58" edge="1">
          <mxGeometry relative="1" as="geometry" />
        </mxCell>
        <mxCell id="k7gf65FouDBsnr_o0FSd-22" style="edgeStyle=orthogonalEdgeStyle;rounded=0;orthogonalLoop=1;jettySize=auto;html=1;exitX=0.5;exitY=1;exitDx=0;exitDy=0;entryX=0.5;entryY=0;entryDx=0;entryDy=0;" parent="k7gf65FouDBsnr_o0FSd-106" source="ShEfWIWbOcaYMvMY--nj-3" target="ShEfWIWbOcaYMvMY--nj-58" edge="1">
          <mxGeometry relative="1" as="geometry" />
        </mxCell>
        <mxCell id="k7gf65FouDBsnr_o0FSd-23" style="edgeStyle=orthogonalEdgeStyle;rounded=0;orthogonalLoop=1;jettySize=auto;html=1;exitX=0.5;exitY=1;exitDx=0;exitDy=0;entryX=0.5;entryY=0;entryDx=0;entryDy=0;" parent="k7gf65FouDBsnr_o0FSd-106" source="ShEfWIWbOcaYMvMY--nj-4" target="ShEfWIWbOcaYMvMY--nj-58" edge="1">
          <mxGeometry relative="1" as="geometry" />
        </mxCell>
        <mxCell id="k7gf65FouDBsnr_o0FSd-24" style="edgeStyle=orthogonalEdgeStyle;rounded=0;orthogonalLoop=1;jettySize=auto;html=1;exitX=0.5;exitY=1;exitDx=0;exitDy=0;entryX=0.5;entryY=0;entryDx=0;entryDy=0;" parent="k7gf65FouDBsnr_o0FSd-106" source="ShEfWIWbOcaYMvMY--nj-17" target="ShEfWIWbOcaYMvMY--nj-58" edge="1">
          <mxGeometry relative="1" as="geometry" />
        </mxCell>
        <mxCell id="k7gf65FouDBsnr_o0FSd-116" value="" style="group" parent="1" vertex="1" connectable="0">
          <mxGeometry x="40" y="520" width="530" height="170" as="geometry" />
        </mxCell>
        <mxCell id="ShEfWIWbOcaYMvMY--nj-51" value="Server" style="shape=umlFrame;whiteSpace=wrap;html=1;pointerEvents=0;movable=1;resizable=1;rotatable=1;deletable=1;editable=1;locked=0;connectable=1;container=0;width=70;height=30;" parent="k7gf65FouDBsnr_o0FSd-116" vertex="1">
          <mxGeometry width="530" height="170" as="geometry" />
        </mxCell>
        <mxCell id="k7gf65FouDBsnr_o0FSd-6" value="&lt;p style=&quot;margin:0px;margin-top:6px;text-align:center;&quot;&gt;&lt;b&gt;Processing&lt;/b&gt;&lt;/p&gt;&lt;hr&gt;&lt;p style=&quot;margin:0px;margin-left:8px;&quot;&gt;+ Normalization payload&lt;/p&gt;&lt;p style=&quot;margin:0px;margin-left:8px;&quot;&gt;+ Process tables Pending&lt;/p&gt;&lt;p style=&quot;margin:0px;margin-left:8px;&quot;&gt;+ Inject to tables Done&lt;/p&gt;&lt;p style=&quot;margin:0px;margin-left:8px;&quot;&gt;+ Process time: Every 1 hours&lt;/p&gt;" style="align=left;overflow=fill;html=1;dropTarget=0;whiteSpace=wrap;container=0;" parent="k7gf65FouDBsnr_o0FSd-116" vertex="1">
          <mxGeometry x="304.46808510638294" y="40" width="202.9787234042553" height="100" as="geometry" />
        </mxCell>
        <mxCell id="k7gf65FouDBsnr_o0FSd-7" value="" style="shape=component;jettyWidth=8;jettyHeight=4;container=0;" parent="k7gf65FouDBsnr_o0FSd-116" vertex="1">
          <mxGeometry x="480.3829787234042" y="44" width="22.5531914893617" height="20" as="geometry">
            <mxPoint x="-24" y="4" as="offset" />
          </mxGeometry>
        </mxCell>
        <mxCell id="k7gf65FouDBsnr_o0FSd-111" value="Main Server" style="swimlane;fontStyle=0;childLayout=stackLayout;horizontal=1;startSize=26;fillColor=none;horizontalStack=0;resizeParent=1;resizeParentMax=0;resizeLast=0;collapsible=1;marginBottom=0;whiteSpace=wrap;html=1;" parent="k7gf65FouDBsnr_o0FSd-116" vertex="1">
          <mxGeometry x="30" y="44" width="240" height="104" as="geometry" />
        </mxCell>
        <mxCell id="k7gf65FouDBsnr_o0FSd-112" value="Direct process from PLC" style="text;strokeColor=none;fillColor=none;align=left;verticalAlign=top;spacingLeft=4;spacingRight=4;overflow=hidden;rotatable=0;points=[[0,0.5],[1,0.5]];portConstraint=eastwest;whiteSpace=wrap;html=1;" parent="k7gf65FouDBsnr_o0FSd-111" vertex="1">
          <mxGeometry y="26" width="240" height="26" as="geometry" />
        </mxCell>
        <mxCell id="k7gf65FouDBsnr_o0FSd-113" value="Format data: JSON" style="text;strokeColor=none;fillColor=none;align=left;verticalAlign=top;spacingLeft=4;spacingRight=4;overflow=hidden;rotatable=0;points=[[0,0.5],[1,0.5]];portConstraint=eastwest;whiteSpace=wrap;html=1;" parent="k7gf65FouDBsnr_o0FSd-111" vertex="1">
          <mxGeometry y="52" width="240" height="26" as="geometry" />
        </mxCell>
        <mxCell id="k7gf65FouDBsnr_o0FSd-114" value="Transfer rate 27 ms" style="text;strokeColor=none;fillColor=none;align=left;verticalAlign=top;spacingLeft=4;spacingRight=4;overflow=hidden;rotatable=0;points=[[0,0.5],[1,0.5]];portConstraint=eastwest;whiteSpace=wrap;html=1;" parent="k7gf65FouDBsnr_o0FSd-111" vertex="1">
          <mxGeometry y="78" width="240" height="26" as="geometry" />
        </mxCell>
        <mxCell id="k7gf65FouDBsnr_o0FSd-115" style="edgeStyle=orthogonalEdgeStyle;rounded=0;orthogonalLoop=1;jettySize=auto;html=1;entryX=0;entryY=0.5;entryDx=0;entryDy=0;" parent="k7gf65FouDBsnr_o0FSd-116" source="k7gf65FouDBsnr_o0FSd-113" target="k7gf65FouDBsnr_o0FSd-6" edge="1">
          <mxGeometry relative="1" as="geometry" />
        </mxCell>
        <mxCell id="k7gf65FouDBsnr_o0FSd-129" value="" style="group" parent="1" vertex="1" connectable="0">
          <mxGeometry x="1130" y="90" width="700" height="310" as="geometry" />
        </mxCell>
        <mxCell id="ShEfWIWbOcaYMvMY--nj-53" value="MySQL" style="swimlane;fontStyle=1;align=center;verticalAlign=top;childLayout=stackLayout;horizontal=1;startSize=26;horizontalStack=0;resizeParent=1;resizeParentMax=0;resizeLast=0;collapsible=1;marginBottom=0;whiteSpace=wrap;html=1;movable=1;resizable=1;rotatable=1;deletable=1;editable=1;locked=0;connectable=1;" parent="k7gf65FouDBsnr_o0FSd-129" vertex="1">
          <mxGeometry x="100" y="30" width="150" height="138" as="geometry" />
        </mxCell>
        <mxCell id="ShEfWIWbOcaYMvMY--nj-54" value="Database MySQL" style="text;strokeColor=none;fillColor=none;align=left;verticalAlign=top;spacingLeft=4;spacingRight=4;overflow=hidden;rotatable=1;points=[[0,0.5],[1,0.5]];portConstraint=eastwest;whiteSpace=wrap;html=1;movable=1;resizable=1;deletable=1;editable=1;locked=0;connectable=1;" parent="ShEfWIWbOcaYMvMY--nj-53" vertex="1">
          <mxGeometry y="26" width="150" height="26" as="geometry" />
        </mxCell>
        <mxCell id="ShEfWIWbOcaYMvMY--nj-57" value="Indexed tables" style="text;strokeColor=none;fillColor=none;align=left;verticalAlign=top;spacingLeft=4;spacingRight=4;overflow=hidden;rotatable=1;points=[[0,0.5],[1,0.5]];portConstraint=eastwest;whiteSpace=wrap;html=1;movable=1;resizable=1;deletable=1;editable=1;locked=0;connectable=1;" parent="ShEfWIWbOcaYMvMY--nj-53" vertex="1">
          <mxGeometry y="52" width="150" height="26" as="geometry" />
        </mxCell>
        <mxCell id="k7gf65FouDBsnr_o0FSd-83" value="Db name: stop_time_app" style="text;strokeColor=none;fillColor=none;align=left;verticalAlign=top;spacingLeft=4;spacingRight=4;overflow=hidden;rotatable=1;points=[[0,0.5],[1,0.5]];portConstraint=eastwest;whiteSpace=wrap;html=1;movable=1;resizable=1;deletable=1;editable=1;locked=0;connectable=1;" parent="ShEfWIWbOcaYMvMY--nj-53" vertex="1">
          <mxGeometry y="78" width="150" height="26" as="geometry" />
        </mxCell>
        <mxCell id="ShEfWIWbOcaYMvMY--nj-55" value="" style="line;strokeWidth=1;fillColor=none;align=left;verticalAlign=middle;spacingTop=-1;spacingLeft=3;spacingRight=3;rotatable=1;labelPosition=right;points=[];portConstraint=eastwest;strokeColor=inherit;movable=1;resizable=1;deletable=1;editable=1;locked=0;connectable=1;" parent="ShEfWIWbOcaYMvMY--nj-53" vertex="1">
          <mxGeometry y="104" width="150" height="8" as="geometry" />
        </mxCell>
        <mxCell id="ShEfWIWbOcaYMvMY--nj-56" value="Use soft delete" style="text;strokeColor=none;fillColor=none;align=left;verticalAlign=top;spacingLeft=4;spacingRight=4;overflow=hidden;rotatable=1;points=[[0,0.5],[1,0.5]];portConstraint=eastwest;whiteSpace=wrap;html=1;movable=1;resizable=1;deletable=1;editable=1;locked=0;connectable=1;" parent="ShEfWIWbOcaYMvMY--nj-53" vertex="1">
          <mxGeometry y="112" width="150" height="26" as="geometry" />
        </mxCell>
        <mxCell id="k7gf65FouDBsnr_o0FSd-75" value="Database" style="shape=umlFrame;whiteSpace=wrap;html=1;pointerEvents=0;movable=1;resizable=1;rotatable=1;deletable=1;editable=1;locked=0;connectable=1;container=0;width=70;height=30;" parent="k7gf65FouDBsnr_o0FSd-129" vertex="1">
          <mxGeometry width="700" height="310" as="geometry" />
        </mxCell>
        <mxCell id="k7gf65FouDBsnr_o0FSd-79" value="Table Processed" style="swimlane;fontStyle=0;childLayout=stackLayout;horizontal=1;startSize=26;fillColor=none;horizontalStack=0;resizeParent=1;resizeParentMax=0;resizeLast=0;collapsible=1;marginBottom=0;whiteSpace=wrap;html=1;" parent="k7gf65FouDBsnr_o0FSd-129" vertex="1">
          <mxGeometry x="290" y="30" width="140" height="234" as="geometry" />
        </mxCell>
        <mxCell id="k7gf65FouDBsnr_o0FSd-80" value="counter_ng_jigs" style="text;strokeColor=none;fillColor=none;align=left;verticalAlign=top;spacingLeft=4;spacingRight=4;overflow=hidden;rotatable=0;points=[[0,0.5],[1,0.5]];portConstraint=eastwest;whiteSpace=wrap;html=1;" parent="k7gf65FouDBsnr_o0FSd-79" vertex="1">
          <mxGeometry y="26" width="140" height="26" as="geometry" />
        </mxCell>
        <mxCell id="k7gf65FouDBsnr_o0FSd-81" value="counter_shoot_jigs" style="text;strokeColor=none;fillColor=none;align=left;verticalAlign=top;spacingLeft=4;spacingRight=4;overflow=hidden;rotatable=0;points=[[0,0.5],[1,0.5]];portConstraint=eastwest;whiteSpace=wrap;html=1;" parent="k7gf65FouDBsnr_o0FSd-79" vertex="1">
          <mxGeometry y="52" width="140" height="26" as="geometry" />
        </mxCell>
        <mxCell id="k7gf65FouDBsnr_o0FSd-82" value="cycle_jigs" style="text;strokeColor=none;fillColor=none;align=left;verticalAlign=top;spacingLeft=4;spacingRight=4;overflow=hidden;rotatable=0;points=[[0,0.5],[1,0.5]];portConstraint=eastwest;whiteSpace=wrap;html=1;" parent="k7gf65FouDBsnr_o0FSd-79" vertex="1">
          <mxGeometry y="78" width="140" height="26" as="geometry" />
        </mxCell>
        <mxCell id="k7gf65FouDBsnr_o0FSd-84" value="cycle_lines" style="text;strokeColor=none;fillColor=none;align=left;verticalAlign=top;spacingLeft=4;spacingRight=4;overflow=hidden;rotatable=0;points=[[0,0.5],[1,0.5]];portConstraint=eastwest;whiteSpace=wrap;html=1;" parent="k7gf65FouDBsnr_o0FSd-79" vertex="1">
          <mxGeometry y="104" width="140" height="26" as="geometry" />
        </mxCell>
        <mxCell id="k7gf65FouDBsnr_o0FSd-85" value="output_shifts" style="text;strokeColor=none;fillColor=none;align=left;verticalAlign=top;spacingLeft=4;spacingRight=4;overflow=hidden;rotatable=0;points=[[0,0.5],[1,0.5]];portConstraint=eastwest;whiteSpace=wrap;html=1;" parent="k7gf65FouDBsnr_o0FSd-79" vertex="1">
          <mxGeometry y="130" width="140" height="26" as="geometry" />
        </mxCell>
        <mxCell id="k7gf65FouDBsnr_o0FSd-86" value="stop_time_shifts" style="text;strokeColor=none;fillColor=none;align=left;verticalAlign=top;spacingLeft=4;spacingRight=4;overflow=hidden;rotatable=0;points=[[0,0.5],[1,0.5]];portConstraint=eastwest;whiteSpace=wrap;html=1;" parent="k7gf65FouDBsnr_o0FSd-79" vertex="1">
          <mxGeometry y="156" width="140" height="26" as="geometry" />
        </mxCell>
        <mxCell id="k7gf65FouDBsnr_o0FSd-89" value="stop_time_jigs" style="text;strokeColor=none;fillColor=none;align=left;verticalAlign=top;spacingLeft=4;spacingRight=4;overflow=hidden;rotatable=0;points=[[0,0.5],[1,0.5]];portConstraint=eastwest;whiteSpace=wrap;html=1;" parent="k7gf65FouDBsnr_o0FSd-79" vertex="1">
          <mxGeometry y="182" width="140" height="26" as="geometry" />
        </mxCell>
        <mxCell id="k7gf65FouDBsnr_o0FSd-90" value="stop_time_lines" style="text;strokeColor=none;fillColor=none;align=left;verticalAlign=top;spacingLeft=4;spacingRight=4;overflow=hidden;rotatable=0;points=[[0,0.5],[1,0.5]];portConstraint=eastwest;whiteSpace=wrap;html=1;" parent="k7gf65FouDBsnr_o0FSd-79" vertex="1">
          <mxGeometry y="208" width="140" height="26" as="geometry" />
        </mxCell>
        <mxCell id="k7gf65FouDBsnr_o0FSd-91" value="Table Master" style="swimlane;fontStyle=0;childLayout=stackLayout;horizontal=1;startSize=26;fillColor=none;horizontalStack=0;resizeParent=1;resizeParentMax=0;resizeLast=0;collapsible=1;marginBottom=0;whiteSpace=wrap;html=1;" parent="k7gf65FouDBsnr_o0FSd-129" vertex="1">
          <mxGeometry x="470" y="30" width="210" height="234" as="geometry" />
        </mxCell>
        <mxCell id="k7gf65FouDBsnr_o0FSd-92" value="dashboard_performance_settings" style="text;strokeColor=none;fillColor=none;align=left;verticalAlign=top;spacingLeft=4;spacingRight=4;overflow=hidden;rotatable=0;points=[[0,0.5],[1,0.5]];portConstraint=eastwest;whiteSpace=wrap;html=1;" parent="k7gf65FouDBsnr_o0FSd-91" vertex="1">
          <mxGeometry y="26" width="210" height="26" as="geometry" />
        </mxCell>
        <mxCell id="k7gf65FouDBsnr_o0FSd-93" value="master_jigs" style="text;strokeColor=none;fillColor=none;align=left;verticalAlign=top;spacingLeft=4;spacingRight=4;overflow=hidden;rotatable=0;points=[[0,0.5],[1,0.5]];portConstraint=eastwest;whiteSpace=wrap;html=1;" parent="k7gf65FouDBsnr_o0FSd-91" vertex="1">
          <mxGeometry y="52" width="210" height="26" as="geometry" />
        </mxCell>
        <mxCell id="k7gf65FouDBsnr_o0FSd-94" value="master_lines" style="text;strokeColor=none;fillColor=none;align=left;verticalAlign=top;spacingLeft=4;spacingRight=4;overflow=hidden;rotatable=0;points=[[0,0.5],[1,0.5]];portConstraint=eastwest;whiteSpace=wrap;html=1;" parent="k7gf65FouDBsnr_o0FSd-91" vertex="1">
          <mxGeometry y="78" width="210" height="26" as="geometry" />
        </mxCell>
        <mxCell id="k7gf65FouDBsnr_o0FSd-95" value="master_line_items" style="text;strokeColor=none;fillColor=none;align=left;verticalAlign=top;spacingLeft=4;spacingRight=4;overflow=hidden;rotatable=0;points=[[0,0.5],[1,0.5]];portConstraint=eastwest;whiteSpace=wrap;html=1;" parent="k7gf65FouDBsnr_o0FSd-91" vertex="1">
          <mxGeometry y="104" width="210" height="26" as="geometry" />
        </mxCell>
        <mxCell id="k7gf65FouDBsnr_o0FSd-96" value="master_line_settinggs" style="text;strokeColor=none;fillColor=none;align=left;verticalAlign=top;spacingLeft=4;spacingRight=4;overflow=hidden;rotatable=0;points=[[0,0.5],[1,0.5]];portConstraint=eastwest;whiteSpace=wrap;html=1;" parent="k7gf65FouDBsnr_o0FSd-91" vertex="1">
          <mxGeometry y="130" width="210" height="26" as="geometry" />
        </mxCell>
        <mxCell id="k7gf65FouDBsnr_o0FSd-97" value="permissions" style="text;strokeColor=none;fillColor=none;align=left;verticalAlign=top;spacingLeft=4;spacingRight=4;overflow=hidden;rotatable=0;points=[[0,0.5],[1,0.5]];portConstraint=eastwest;whiteSpace=wrap;html=1;" parent="k7gf65FouDBsnr_o0FSd-91" vertex="1">
          <mxGeometry y="156" width="210" height="26" as="geometry" />
        </mxCell>
        <mxCell id="k7gf65FouDBsnr_o0FSd-98" value="roles" style="text;strokeColor=none;fillColor=none;align=left;verticalAlign=top;spacingLeft=4;spacingRight=4;overflow=hidden;rotatable=0;points=[[0,0.5],[1,0.5]];portConstraint=eastwest;whiteSpace=wrap;html=1;" parent="k7gf65FouDBsnr_o0FSd-91" vertex="1">
          <mxGeometry y="182" width="210" height="26" as="geometry" />
        </mxCell>
        <mxCell id="k7gf65FouDBsnr_o0FSd-99" value="roles_has_permissions" style="text;strokeColor=none;fillColor=none;align=left;verticalAlign=top;spacingLeft=4;spacingRight=4;overflow=hidden;rotatable=0;points=[[0,0.5],[1,0.5]];portConstraint=eastwest;whiteSpace=wrap;html=1;" parent="k7gf65FouDBsnr_o0FSd-91" vertex="1">
          <mxGeometry y="208" width="210" height="26" as="geometry" />
        </mxCell>
        <mxCell id="k7gf65FouDBsnr_o0FSd-101" value="" style="edgeStyle=orthogonalEdgeStyle;rounded=0;orthogonalLoop=1;jettySize=auto;html=1;" parent="k7gf65FouDBsnr_o0FSd-129" source="k7gf65FouDBsnr_o0FSd-79" target="k7gf65FouDBsnr_o0FSd-97" edge="1">
          <mxGeometry relative="1" as="geometry" />
        </mxCell>
        <mxCell id="k7gf65FouDBsnr_o0FSd-100" value="" style="edgeStyle=orthogonalEdgeStyle;rounded=0;orthogonalLoop=1;jettySize=auto;html=1;" parent="k7gf65FouDBsnr_o0FSd-129" source="ShEfWIWbOcaYMvMY--nj-57" target="k7gf65FouDBsnr_o0FSd-84" edge="1">
          <mxGeometry relative="1" as="geometry" />
        </mxCell>
        <mxCell id="k7gf65FouDBsnr_o0FSd-131" value="" style="group" parent="1" vertex="1" connectable="0">
          <mxGeometry x="570" y="80" width="460" height="390" as="geometry" />
        </mxCell>
        <mxCell id="ShEfWIWbOcaYMvMY--nj-67" value="Dashboard" style="shape=umlFrame;whiteSpace=wrap;html=1;pointerEvents=0;width=70;height=30;container=0;" parent="k7gf65FouDBsnr_o0FSd-131" vertex="1">
          <mxGeometry width="459.99999999999994" height="390" as="geometry" />
        </mxCell>
        <mxCell id="k7gf65FouDBsnr_o0FSd-11" value="Web Services" style="swimlane;fontStyle=0;childLayout=stackLayout;horizontal=1;startSize=26;fillColor=none;horizontalStack=0;resizeParent=1;resizeParentMax=0;resizeLast=0;collapsible=1;marginBottom=0;whiteSpace=wrap;html=1;container=0;" parent="k7gf65FouDBsnr_o0FSd-131" vertex="1">
          <mxGeometry x="17.25" y="98" width="149.5" height="130" as="geometry" />
        </mxCell>
        <mxCell id="k7gf65FouDBsnr_o0FSd-33" value="Web Content" style="swimlane;fontStyle=0;childLayout=stackLayout;horizontal=1;startSize=26;fillColor=none;horizontalStack=0;resizeParent=1;resizeParentMax=0;resizeLast=0;collapsible=1;marginBottom=0;whiteSpace=wrap;html=1;container=0;" parent="k7gf65FouDBsnr_o0FSd-131" vertex="1">
          <mxGeometry x="207" y="60" width="229.99999999999997" height="312" as="geometry" />
        </mxCell>
        <mxCell id="k7gf65FouDBsnr_o0FSd-12" value="Laravel v8.83.25" style="text;strokeColor=none;fillColor=none;align=left;verticalAlign=top;spacingLeft=4;spacingRight=4;overflow=hidden;rotatable=0;points=[[0,0.5],[1,0.5]];portConstraint=eastwest;whiteSpace=wrap;html=1;container=0;" parent="k7gf65FouDBsnr_o0FSd-131" vertex="1">
          <mxGeometry x="17.25" y="124" width="149.5" height="26" as="geometry" />
        </mxCell>
        <mxCell id="k7gf65FouDBsnr_o0FSd-13" value="Vue.js" style="text;strokeColor=none;fillColor=none;align=left;verticalAlign=top;spacingLeft=4;spacingRight=4;overflow=hidden;rotatable=0;points=[[0,0.5],[1,0.5]];portConstraint=eastwest;whiteSpace=wrap;html=1;container=0;" parent="k7gf65FouDBsnr_o0FSd-131" vertex="1">
          <mxGeometry x="17.25" y="150" width="149.5" height="26" as="geometry" />
        </mxCell>
        <mxCell id="k7gf65FouDBsnr_o0FSd-14" value="192.168.148.14:8888" style="text;strokeColor=none;fillColor=none;align=left;verticalAlign=top;spacingLeft=4;spacingRight=4;overflow=hidden;rotatable=0;points=[[0,0.5],[1,0.5]];portConstraint=eastwest;whiteSpace=wrap;html=1;container=0;" parent="k7gf65FouDBsnr_o0FSd-131" vertex="1">
          <mxGeometry x="17.25" y="176" width="149.5" height="26" as="geometry" />
        </mxCell>
        <mxCell id="k7gf65FouDBsnr_o0FSd-32" value="Websocket" style="text;strokeColor=none;fillColor=none;align=left;verticalAlign=top;spacingLeft=4;spacingRight=4;overflow=hidden;rotatable=0;points=[[0,0.5],[1,0.5]];portConstraint=eastwest;whiteSpace=wrap;html=1;container=0;" parent="k7gf65FouDBsnr_o0FSd-131" vertex="1">
          <mxGeometry x="17.25" y="202" width="149.5" height="26" as="geometry" />
        </mxCell>
        <mxCell id="k7gf65FouDBsnr_o0FSd-35" value="Line Name=ws.one[51]" style="text;strokeColor=none;fillColor=none;align=left;verticalAlign=top;spacingLeft=4;spacingRight=4;overflow=hidden;rotatable=0;points=[[0,0.5],[1,0.5]];portConstraint=eastwest;whiteSpace=wrap;html=1;container=0;" parent="k7gf65FouDBsnr_o0FSd-131" vertex="1">
          <mxGeometry x="207" y="86" width="229.99999999999997" height="26" as="geometry" />
        </mxCell>
        <mxCell id="k7gf65FouDBsnr_o0FSd-34" value="Line Number=ws.one[0]" style="text;strokeColor=none;fillColor=none;align=left;verticalAlign=top;spacingLeft=4;spacingRight=4;overflow=hidden;rotatable=0;points=[[0,0.5],[1,0.5]];portConstraint=eastwest;whiteSpace=wrap;html=1;container=0;" parent="k7gf65FouDBsnr_o0FSd-131" vertex="1">
          <mxGeometry x="207" y="112" width="229.99999999999997" height="26" as="geometry" />
        </mxCell>
        <mxCell id="k7gf65FouDBsnr_o0FSd-45" value="Status Connected=ws.one[51]" style="text;strokeColor=none;fillColor=none;align=left;verticalAlign=top;spacingLeft=4;spacingRight=4;overflow=hidden;rotatable=0;points=[[0,0.5],[1,0.5]];portConstraint=eastwest;whiteSpace=wrap;html=1;container=0;" parent="k7gf65FouDBsnr_o0FSd-131" vertex="1">
          <mxGeometry x="207" y="138" width="229.99999999999997" height="26" as="geometry" />
        </mxCell>
        <mxCell id="k7gf65FouDBsnr_o0FSd-36" value="Target Output/Shift=ws.one[43]" style="text;strokeColor=none;fillColor=none;align=left;verticalAlign=top;spacingLeft=4;spacingRight=4;overflow=hidden;rotatable=0;points=[[0,0.5],[1,0.5]];portConstraint=eastwest;whiteSpace=wrap;html=1;container=0;" parent="k7gf65FouDBsnr_o0FSd-131" vertex="1">
          <mxGeometry x="207" y="164" width="229.99999999999997" height="26" as="geometry" />
        </mxCell>
        <mxCell id="k7gf65FouDBsnr_o0FSd-53" value="" style="edgeStyle=orthogonalEdgeStyle;rounded=0;orthogonalLoop=1;jettySize=auto;html=1;exitX=1;exitY=0.5;exitDx=0;exitDy=0;" parent="k7gf65FouDBsnr_o0FSd-131" source="k7gf65FouDBsnr_o0FSd-32" target="k7gf65FouDBsnr_o0FSd-36" edge="1">
          <mxGeometry relative="1" as="geometry" />
        </mxCell>
        <mxCell id="k7gf65FouDBsnr_o0FSd-37" value="Output=ws.one[44]" style="text;strokeColor=none;fillColor=none;align=left;verticalAlign=top;spacingLeft=4;spacingRight=4;overflow=hidden;rotatable=0;points=[[0,0.5],[1,0.5]];portConstraint=eastwest;whiteSpace=wrap;html=1;container=0;" parent="k7gf65FouDBsnr_o0FSd-131" vertex="1">
          <mxGeometry x="207" y="190" width="229.99999999999997" height="26" as="geometry" />
        </mxCell>
        <mxCell id="k7gf65FouDBsnr_o0FSd-38" value="Last Cycle Time=ws.one[6]" style="text;strokeColor=none;fillColor=none;align=left;verticalAlign=top;spacingLeft=4;spacingRight=4;overflow=hidden;rotatable=0;points=[[0,0.5],[1,0.5]];portConstraint=eastwest;whiteSpace=wrap;html=1;container=0;" parent="k7gf65FouDBsnr_o0FSd-131" vertex="1">
          <mxGeometry x="207" y="216" width="229.99999999999997" height="26" as="geometry" />
        </mxCell>
        <mxCell id="k7gf65FouDBsnr_o0FSd-46" value="Kadoritsu=ws.one[34]" style="text;strokeColor=none;fillColor=none;align=left;verticalAlign=top;spacingLeft=4;spacingRight=4;overflow=hidden;rotatable=0;points=[[0,0.5],[1,0.5]];portConstraint=eastwest;whiteSpace=wrap;html=1;container=0;" parent="k7gf65FouDBsnr_o0FSd-131" vertex="1">
          <mxGeometry x="207" y="242" width="229.99999999999997" height="26" as="geometry" />
        </mxCell>
        <mxCell id="k7gf65FouDBsnr_o0FSd-47" value="Progress Cycle=ws.one[10]" style="text;strokeColor=none;fillColor=none;align=left;verticalAlign=top;spacingLeft=4;spacingRight=4;overflow=hidden;rotatable=0;points=[[0,0.5],[1,0.5]];portConstraint=eastwest;whiteSpace=wrap;html=1;container=0;" parent="k7gf65FouDBsnr_o0FSd-131" vertex="1">
          <mxGeometry x="207" y="268" width="229.99999999999997" height="26" as="geometry" />
        </mxCell>
        <mxCell id="k7gf65FouDBsnr_o0FSd-48" value="Total Stop Time=ws.one[37]" style="text;strokeColor=none;fillColor=none;align=left;verticalAlign=top;spacingLeft=4;spacingRight=4;overflow=hidden;rotatable=0;points=[[0,0.5],[1,0.5]];portConstraint=eastwest;whiteSpace=wrap;html=1;container=0;" parent="k7gf65FouDBsnr_o0FSd-131" vertex="1">
          <mxGeometry x="207" y="294" width="229.99999999999997" height="26" as="geometry" />
        </mxCell>
        <mxCell id="k7gf65FouDBsnr_o0FSd-49" value="Status Line(Run/Stop)=ws.one[3]" style="text;strokeColor=none;fillColor=none;align=left;verticalAlign=top;spacingLeft=4;spacingRight=4;overflow=hidden;rotatable=0;points=[[0,0.5],[1,0.5]];portConstraint=eastwest;whiteSpace=wrap;html=1;container=0;" parent="k7gf65FouDBsnr_o0FSd-131" vertex="1">
          <mxGeometry x="207" y="320" width="229.99999999999997" height="26" as="geometry" />
        </mxCell>
        <mxCell id="k7gf65FouDBsnr_o0FSd-50" value="Current Stop Time=ws.one[38]" style="text;strokeColor=none;fillColor=none;align=left;verticalAlign=top;spacingLeft=4;spacingRight=4;overflow=hidden;rotatable=0;points=[[0,0.5],[1,0.5]];portConstraint=eastwest;whiteSpace=wrap;html=1;container=0;" parent="k7gf65FouDBsnr_o0FSd-131" vertex="1">
          <mxGeometry x="207" y="346" width="229.99999999999997" height="26" as="geometry" />
        </mxCell>
        <mxCell id="k7gf65FouDBsnr_o0FSd-133" value="" style="shape=image;verticalLabelPosition=bottom;labelBackgroundColor=default;verticalAlign=top;aspect=fixed;imageAspect=0;image=data:image/avif,AAAAHGZ0eXBhdmlmAAAAAGF2aWZtaWYxbWlhZgAAAOptZXRhAAAAAAAAACFoZGxyAAAAAAAAAABwaWN0AAAAAAAAAAAAAAAAAAAAAA5waXRtAAAAAAABAAAAImlsb2MAAAAAREAAAQABAAAAAAEOAAEAAAAAAABedwAAACNpaW5mAAAAAAABAAAAFWluZmUCAAAAAAEAAGF2MDEAAAAAamlwcnAAAABLaXBjbwAAABNjb2xybmNseAACAAIABoAAAAAMYXYxQ4EMDAAAAAAUaXNwZQAAAAAAAAfQAAAH0AAAABBwaXhpAAAAAAMICAgAAAAXaXBtYQAAAAAAAAABAAEEgYIDhAAAXn9tZGF0EgAKChsqvn/P4IEBA0Iy5bwBRFAAQQQQUPS60TmCLEeJl2nsmOWW155zJKFfZUr0ddiL+XGthRspjDxdlFtpvn7H38vtOYimT5JFwPofwKmOW90Ap+25m37zcMb0nrA/T8TKsDNM3MIt28Ye5kxEGwyDgN7fItAO3MT7FONb4BeU4sXZHvYm9FQG+Zq6EqzUTPeZAUWuE7i4o390K4JIY93GbUKBZSH+YOOSATpP73uT4hhV00RvSYah0J9tPXhrmohMx/wTlFKbc8aSC5ItYKoYx07cpMvjNkWG2BgH7SD6ONyBoHNg/r6m16kiSTxp8rE/vCuZmc63G75nJLS9m8h6ABfzkC+bLV7dnT19rzAQpC3eNPdk13vTk571vlOV8jjxQANAwHeRRw59YmsHmf2zebmKU5y2gISo9U8MxjD4qc7249xt3lG6n//+lM12mZu6KjK4idBTw6dHrLeMTaypHqOCvIT7bFlTZRRlBV2YLoMMamMru13dQd8NY+Eb4dIc8M8adPztEj7Hf6oJVAWgcYTf0Xn/+UnrISOqn4jJQUyumgMdiuR8OV6E/oa5IhDWtF4DMKRB946aTS1NiiFg1o6aRjVnnYvPw0xcGMA7F3dJzuTuptsEOWY9f22Oehg09jTOfK/uMmtx+NeNX4edcLnf5CqXPZ9eVYtX+LTnpkdowVxETy9eEjIEZPHuIExeYkwnA5wCAVZUlp1qV448zORf48ZKFipYMEGXeLgD3DgNBpT1Se7Tum3L/JECD4+ofqXMLekw/pXrkkb/K93/p9f9XDLX9cP21rfdAvd9ycwxQCpbS9+zJeDblZawP9+GlRrPxuih3Yd6iHpCCIE4UkJcpFqQn/opUd3MbLTJAa2T7rcqgWu85NE01oD2Njc/FfB9bYIvq0T/OHu8G91jV3xLahwBm0gY//deMMg0fMw4iDYHZ2ZVGmtInULUBnZLEymo2E00vFuwpYqv6KPv79Pcf//5UfB4fDx3SgpFAYGwFR+GIbZnQQoy2LzBDBPrNYqPnSBZQOiXdS3yRX64gjr3NrvHmxnG+hXixSdGtv8Z0bDq+7JvT428ZmnFVI77zpTIGk8Vprd608EClEwHY5WwSvYyYowcX0PlMi+QGDAMU6+CfYgZckhTUyjfVuKcYLuvEj7NiHNJQ6fY1yF7pZHWR0Rn7pwOVjpgxs/98ygRZKF+owOkomcR/t7zun6JDDpdTkjL1u8bgh842Y6k06lo9cmcb14Kcf8IkOHNMzASr7dLdl/4nenUwCYIYYl3aCPOKBSMNMyUrh/vRHbB0LPSxq5hMWs682k1ZRp7yGYyCDwKLc9nLIhaiw4k/nO3TSuhIRnACpvx4656H9pTT/t4PRDfj2eLO8XtV6+mMGqPEkQhYUuv9SlTA4trCeOpzLoXx6ZlsfVDnTb39XBxXfsfhNwe6S0uMcLTo0u5GxBHWqkzH5RNgz2tpXnZtUdnnm6/t2GFEQyR8BLmYtQ1IrxzSKpv/fkpkNok1cVfgI+9n6/KWKLMyqmQfJQzfVb8UPgqNDf0HH2uTXi5RiiWeGV93o5Wr1W/PfaRLefqQ/kuoyxHbHmXqnkC5oCAzaLzZfuCH9YTisDcYi1ilUzow9rDDGR3O6Mvn6yWwpgYUX3ORvTE+TpNPT8SVtfY/rHSBPd0UG4H9mEWSaS9JxTTcxMzW5p8TK0mB63+yAF8fkozygdWtlaGzcJea4fowcZ0Zx7bOSzcaMOuiyt0YFe7QacO25tYY2cDWDPnFr6UqJ1P3pZDcOVM+/U3I0RgIqD9BxiKp+HuENSYBfSbuw2C09/PaZNGV032vFY88bhxdDj6GhhhVb1SMZ2PxglciEuUe+PJ2zVq3AkN6q1Lv2H0fZKIn+GCfdntYosoA1QYWZhW2+yJai5BXMtzJY7jrie/guUDHXwZPLfHdUYJ/aDHVWvv4JtPDvMbZBgWnPRvEmjQHgz+xhcja5wI0rtzuREjyIYS/wUhY3sUHzBA77+7hk5g7rjNY/oRJgDJqrB0N+NRyCg2RXZ6Uv+lF1mvLm4KdqAZiNRngSW6oH4UM3UMjl6Mts71mATxwR6NW/XDCW7L96LcjA2KJHRKPf1Podt19PSrSd94wSvj8tS+fjeQXdadNF/TumsLonc2HaQJJ7iFyFDn+yqAPQNrjTsYLKfZ/UkIM/j0KQotOouteqLvJ2sEZvtFGw4VGBhjKd2ZA6Jne6KmDDlHeEqGJr5sXl+L61CyrAjWNAn1ACBDVqjuC4dPv4NsjLe+gBDrB/jT8pzzi3jxgF68XI/i9FUCbYaPG1ybSPfGXxGbHAHRMdh6z0MszA4I66C6Zc9n7qOLOaLVAqw6JweLPdHdtQjKCHJkKqgkZ74p1fWemyt0wGf42jeehWfmIPEKABdhxTC7UB8bkiiL3uDKV2F9Ikb4z9Mahj+gPbSjZU0loyslf1RkPpAkizQsROYG1AV37NlKCVjURdBAdK+apH3S///v8ejZXqLPoLIOBJzMh7T4bEzt/UCw8s3Xq17TUtbNv0PcU5FIQi3llcNsuk7Fx+vPq+0W70mfwvv41oH9cvUUq/kp3RhO8WoMl3hNq/lROhUUo7l2LZROvrAcmvnwcYCY3bf2XAD/zv1n29ndXt/a/nf64W8vjeTpR0Wbq+Y4Yqdos1yaqIZbZJOM6d4r7iALhZhJ2lleNTuabUwquTV9XHKO1siFJImyAehJWAkT4LSGypK1L9JeHqfrtswctt0TuLa5ReYtYlD3nzMCeTke8RHdZN/Hfcthq6lE3MN315Z7a+7+z/pgZmI0sGE1t+pEUrtmh9YAwzjfXzTquqoMipYJcfw5YPbJgU1BavbQ36iDt+0nnJjMINOqkRePvOhkwfFbzr905OC2g1P18FGCPk9sLpapiErArR4SHAZkuWbdtcQFz2rnkWxJdJIVbxEtKduGL0OejKKXfefHiTcfViBIElvxnk/6K3OR2UVHcV54qWPDEfWkem4on/FzqCtRL0lTvepw6/Hp34uzpQyfYbhQDkns/E1fnQR4RuHuA4JtxWa+2Q6GKqq2s3DIMp/VzezsJsufqEjSmzUj0AQm5XPirQNYhBscBW4GdMB4WSGmtklzDaL4rekH1B5h/pI+6wUBVJNS55LY6DFYjinVh2GnJVM7azAnapjLCuohK1jtg/8ylnOX+Fl/TGe1VPYtcntNEOxnsbELzjVbMt4WUtBLy2uCDbUHgo1Cq0ra5T7sLB+5Jb4mapXfnQVlUzrZcTfuhxbFGf1xN4tY8j1wQw6aWdUGIoyZa+ff1OFTNPIYE6YvFwWF0GDG2km4BSOl0/jqbS7KEfwUM4i/CIUyqSDmIL2FsXx6COZJqstZGMNK05K+kEEWOfwKctWt16YG0gropMHX1YxJ9tH2fbG6PrEKQjumz1uKv+mD05iaHbwx9vJZR2U6t5QEwCpH9+FpM8BJPOqoiSkFVyxU2VpRlUOcLUlzLLLUPREm20Mcknv79hVSvVY1CrXw48Tblg/x3KBQ5HhwcLxcBbqFduovuOX8Pon6nb7ypWi12t7aGPQkF+C33+SZrYvjvFSnmnn8N1zGLF22I1zmEgd6o8ZDOBDsafTObwOY/04/9plGj6iaHVlNDNPEhdbTE39ybzRwUmPSi9f5YU8Jt9NlTNOPUuFXP8+ntU5RUXXIIKSNKTY+MoCttAT4UaX+kwW61nx7mqix+lu2Qqq0AjS8Lx1JVJ4qqXjeGdJ6B22KzLbS55rsJCuIKZTFe5cPnOTFFjjjOPLXI1h8Ps6WJfqGWNahFUDC/KccsPMwaUUrTMhFae082BhSVLq4xW+GCDtA9GSEoehvqoR5dXCqNGYsm2u6093ofWH18ZQWbeNg5uZsxjQ0FunKdnULzLN6DA5kGToW2Ih2fsMuSERBUquu3HF3AMaE7azSorOc7ej0QIeXAFsisJhDeZzEa7ME6WBY/aSTaxlE//pKISo7aWFzg2Bc18M8ZAHoWuxkfBB38gKCmEdAjVE8p9/g2obD9I7lr86hmByxU1kGpTsu8++r6vq2C0jfOlPCsOcFLP4EcCihmDU4YHj6r6Oj1zlLINdIokDhDca/N2n3SpEUB0JYwqJN3NxVVJe3KyRbNcRLVPIdfCPr3JEvGIsNnJ0LzjRsLQvtwKh9PEwIWZeVjZ0NbUCnhC3Z5eTXx+jyAwkAdprssVADmhG5R3p6/+59/DfJkpBnr2NVP6YCCv2CCtLHjBJpJC8pSFllkR27ZcGVL7LjOsXcw66PYAsetyutSjYTe3TCNh5WI0LyxQNMOwOC4vHkK65s4Rg6qnXZiVwhP2CNErhkSu/zjd3RbRqpMfkSGf5l9cqOs36Q0u/+2bRJBZvLWG05ZFtzOeqvPFcgmiL+AqFbwzvoLQUIwyeQQXVjHMNLVYTAocdVXx1GmVLA+VI3QEk3y+zeSqKKYqbENImIUtMFaPBl7PkEaghXHlwJImVTCKLzVIZ3GQPY4pZs6cYag8DBcFZIX5jqZZgD2AJVKeOIJuZnLlZu5b2FPrzjUaBAO4RqRHH5R5IjFt0xy8HtIiVeXR+l/auwHpd6y6NRXhr3M9LVUcB69wzEoNVnm90KH4pzlQ/jXXLgGhi3MAEnPZtbvIcL+JNr6BmXaPf6C0VL7eW/xq8ns5WYPRItj/WAi2f/7zhAr56uVqO3dPEwRz+eNggtnQbhjxPsUj5PGiUEbUGehTy845EL9kcEMZ1cc5rMlyyjQprIiqZpHoWKTebE4rfWJ8C5LIp8jcYrtYsNNEG3RHJmma9krgGhgC//C/RYyywMskdQ0+MPzKftlnoh4NAXdlh4ceNpG6i6noyMHV/XhJymhZ/XJFgI0STmJLkQIn3lUE6+axwmTq65btffp9HXl5M9T143PHx9hoSYOGTRUAwTn1OP33kdoPMWe7yBMCcKVgP/Y92WxFzOzDyulELjA9WUZWUIG98KXokhyC+t6iND+zjwx/IROyKqMm7/veVk1z4wcBxDJlbDSMvrr42X8HFZBA+IKWfYhxhULGnY5ycsJ5Lgbo3LqwebmZHKkBHx3WXQbOmizPG3sKtTGUmU2E96B/+yXu3BLdYYi1PmQPKV3cSwg5xpw9EwMGoYabbUNaPsqs9Hm9tin1UDbu3GBrLo3VfJNRaMlMMNqD22BzK4Mp5Rv8mnyuqzRqHH5ivUiZfWI6YOV7/A+8RTfiaCKouiTXus3Lw6iz04nOL/KXkXmtT7LCkaxoJcYPROCzI8zcJquB7zEQ+56TX+eE1OTlng1Gu+LNNYaLLY9wk6Kefn2vHo+4uZSkeV9GsBe3+KnrdeO1YjSNlynkPsIEjp84j+uTJ/B09imZEdgEqCoyTLcJfGm//37/hWP3ZNATEkK5L/I6IL/sJ/5pOFNKCkBaHtF9aKEt0VOi05ppfRrjg3WEGxc87fkAJjRbLUFXdLhsikyZUpbZZ8VRobRkBRAHcHB1d7+PAG7xJXe/HawmUFGXbNxSgh6mABK7ijACrOUoFRPv8TrFOXN26ypmA7Gp/Br4R17P4lhw8g5sqw+Va8VvNyPdtDN+zo917Dfex3q32JbIXMAmeofpEFDvRhVNnusB7iz9JNp739hc0yaS0B+Q9y+gNtcC2sH6yTRcYV/f223xO2qQJsswDXXUTRwoJVD2Gbro5XBks/+YNLjF2VcYtdyMeAUlF8Ufla+cQBE97jot5y22jvb3TCeZX4DEpV7+RH1hGDFqvK+ILcvRZPc2JU70oqrnHTydQ/Igu18T7F4LZ9+UgldFZB82adXyQY/VtrniY/OmxVB2wvdRt200FJmoTedH3FHZXwjty3S1g/ZEkomd8hbYzjefp6shrYa8fOAD9sgg2gqraEdxK01VvOf/4G29N/jTF4ZHuJqA5Rb5GEzbQeaJDFIuvFbTKUnsIu5iN6FCSnPebknM319P94k+l+sGhblpYRHmHTsFPZPzIZvkHN6COKA+zuQIu60ubrlNmJ43kHckIDBCTqHnUkVdXEsznJq1BrHNLFf0HXTyV91K+plXwanddPervZjxNd0hNEzlKSScrhz8HVTxZKx3xvPXL+JYS+Ogd3/Pp30dupjZsjm55KvETZm8ZcI0YF+P+N74Vg+SS/gGrORg1ercJlTfwEsGAS2yncWZqUoDC7UDOhIRXZIAsRk9uY22+x22DcN6wemWgEnQmS6yFaKOwdjEE7lxJM15Jvj0AYWpx6y/NMuHx/6BQL4ofThE9AAnO7e6XOitIWP/uyHOmJepN9eEbSKzqMcO9l2O/TY8U3sUjZOgoLsYbZNjdplk9Z4dCPZ2x/TWAZW143NbYdC5F+eXq2bewx1QfHUoSuuQ9MQL2/VXAs13oTZQlfb/jjjRwc9C/iv2B6D3M1rJmC/IrD/TjXd6KdNsHwu/6edAQ+QmPQO0yRFz1mm26zIxpJZlvkIijHSTqgQlDHtM5JoyGEr2gWd7Xvct5OQKYOrZUEtXdGJSxb5eMNqst6mZLRTxnA8AJDJ1XbSBcFOZUPfZJmDztobBmNE0wN/bU1St/ebMapaWmV37avEK/RXDt0boN2QINeOXdr+RK2nzPsPE1ybmlqy3ddYgLocut/MZrzpg7pvSjAAGdGycfPumwx97TUbqKPTOjMLD+vCv3kIJVXaA11B8zlHjbe7qi6fyPVdD1RGPoSZZh7bvQ2K+8I9WrIcf13014efc0TkS97ctwnFTyg9SVJk8bCPVET2mmCk8QipMGjykD7ik5mbXabsu5tOAn4pGZxZHbWRWOFfdjOamGe2I17U9PNYvkw7/rHO/F1gk3p6n/+OC5FyaHznkh34noTY3uA3pp/7/punjjHNJG47WiJndchjruHASiN/HtOEDdxy8xrpN8W5oUHzmSRR9r/M2nWPyvfY8pMkLQ/hP6qZXhJ3R1JOzddo5VB9VBKY4A6RcmM70FDFATs763RiaFIe9sTx324+CpImMSUJJ+HyiYrycFvf6klBlHuHaIEpOeV6btylVa0UHHgEuctUCRU65MnIhhxcMoqs/U5RxC3LeQNiE4fIwy/WhFyadZvYGbCFdQc+3u0FMmxHF7p3F5P9c+4BzRuqkPfu8J0VxVTCXmIBjT7vuesCN6bqbgVs2Hk6qY7kdO55+VcWDlsBi1JF7RY9ZPxwOnZUK7zvqBZnIEn/mCx8zVWTFEGKIpnNcRQdX0wujI4AdR8DuBR0t1qf64W2+Fr9I34R82poMJfFd8Cxz9pRSlh3bY9WwkWQ+LmktvREA+0zhA2tH/HgoJMe+D/1CIHvQ1SUZ8Cnk21t1XH7+zMWaARJJm1/fxzj/TD3wtkH7eBFrsNsS1zGy4MqrbVPm2W+qW1wgaHU/CA+12u7CmpKEoc5Ku998tcAZFBNqvd8YULaNL+sM7oCHtLQ0IeMU0EGyqaucM5Hq2CRnFRUPX0nK6Dpa9gMACCsY4/bVRg46TlwnjAXTL18uHmj2dMfUk3drYZIK6X86b2VWzjmWy/oCq+ReAE/5ETTMFoub/MwyFwMc9+CT3DNluWD8KNTS1zuU1te5HpYz4kCMkA0WKQbzPDxTNMAFyqFhA4xuJKc9A5xKQHzFCa/3sUHADbgwErb4ESh2aVxpDivrsqqXWcnXDibtLD6m0p5uCbUF7qa/cQ4tdB3T4jfO6Oz/I8qBjjN8aNEfRqw+bWBEBZk/iSeTgkCWeyGB5s5qWYNpT/OqS2I6JUte4zs9ZmfFBv1LN2bgTjjUrV5lYMuDuO7sJq+bshE3nbT6JJbhKm0sNq/8L1bHHPb+yOiU5N8Hd/h97fXLysyfc5SeAauPIDUj0D8plzm+SuYuAbGP5hEfQYh810KJ6d4zxodIXM8tWFDv8EFp8nuF/mRYQD69wBPYp1F/QH5wL/FrgCGBHWRoXaoylqIngfhho1+Wf1uyWD6+sJgOudQLebzxqjyl7L5RV+k6IP/PeH0yGue53x9NlBsHtlZpLnNcc6mnJq5zXgMLT+xeVK9tP3DqP6uhEVx3Dwzf3wVaPCF/rFUjjrUwNvaD5bht7H/xr9boIe7NRVtWbwUwYcnh9QfymalMyt8e2jTWLHfZGoAJRSTNsRf1bM6bLN2RuV9RSuHHCBK2dYZ8rAgpnIh8jwNr78GW9jCQQD/XaAYcUqe5CuUdSbFju6ufkiMz8DUi9Vuwz5gQrIOIoblwCYrBCSdXMPbmuBdFjyY3E5KumL73hct4Aq6S8UZdG1OJ5UVIJWOXO/7f3qjHpiqLjTKrzGmnwK6raEyMYR6ubRMEAarKFrdzm7BmNrFP+s5S0n+au5mwAA7sVwkjA8nJ1h4M8c8cCF27L5Lm4R3setWBb0PfRCYmeKrBiExLPmO0CYy3Wvg8/8+CUAY672ykBvsjoShlHNAjcHK8f7BjFfl4+7gIRldL8p7r/ebv8ewF07tcliWgST51cYB/G5wtM7MEA5VDHciplzdlLbymFfuTx0Bh96ooRzix4mCtzbyH5MEoPMNErX/+TJDIbPH5xlneAWelLnNaZ4MSTFf9I2diY0Ns0Rc0Uh/UZ5afSzDMBDTdTkPycF4e2ofACwTYzJe52WrfgI3W5qjKa86P8ciUxGt7RoT8hAGXnwC27kEtRV65YhAu4IxP/78v+prEPKIs4X37vlOJJPiqIEucx5AvJ02c3rRU/V/ppyGUvOQM/t8qejVTbCOXoASJei2ZBn2CAIQyTKEo1/h8JGGx3zj3scAlcdoyqZryQOGHLeP9TcN1qtHj5ykJCWe5HpyY86mlWT9whj1OtxkIfQkf/nDJVZl9X6v6JaJeN0kwNsemb1L40SgY09hTS2rfe88/v+VSlNaacqc/s8Pjt0wb/Xi7Oe+X9LNLKxQnlmQjNa4ZjFFjvnoePsaXAoAy2HtwW3XslgYDu6h1mlGaS5FV0AK+0ReJhjc8gY5OePY5DzDlKtEk535fagk9rfHnY1uYDbP/ZSSxRjB2QzWMvYazBauLiehYKhCznoOKaENfyeN7qphqpMEY0txY5WzKjhEwh9i31tvSsUucvJypRQjOYybxDuLgXcC4ZIENfHk7Y0NjS8awEAtDaQnAEiUiYIux3qs3v8GjaeVkit5U/XZtDZJKx38z50/Fq1Sq6fYk8nblwUjdaiFJmC5pALUtKsK3jS8BQDZ/N9hpMm7w5u1LWEx9Oi9IDMxQIzuA/yLcGafeeJgn/uY44Z527EhNuHzT7DNZ9Id329hkWnTrEU9sgle/NVWsTNbfGwY2/7OJ5E58hxQUmye3CCaUT+qVPtAUmWhVaq8RIIs5pjii6GuxsQoJlXq4cXF7WYEuykto/wX9ez8WSmmlt19mgOyaWoLkF1OPxcjYnEHCTa79AttFFjNVeEB08pds0UlOe6CBp76nRuHJF+tsfvP09zB6FX085unI8w9TF2Rk48HkQDE7Yz9UuoaDb59vaNPhDv0D/uhvMnnNIS4X/7a1xBx6DEpSPr92yCspuNWIwFEUAE1NhPZHhTbkNwm64Jz3M8PMRwZfTrelWpHyRIIpth20fiyvASVQOpUxHtJWOyGXSyKsabG10BUWooqMg2oNAuakChAmbq2MK3CgFPvnvQFZUTiFVNNNDJIzH9IWd6YTMpbxUH78Trdt1DA6EhjUhZ+sqm+QnUMs3+LDMHgvdqrsnIai+abahKTNdjYRobHm4EcPIW1baGLcTgicBfb5UqutaLN/cJlVdvIt4Kbmb9Jm/bbeGzt57znriqbd630/QWERPVSmWsFldYSjZd20WAu45F+GVstePBis1dRhLioU99flOGDiqX7qxA5zVzb3A0Pspl6HDapHaSOrmMM/awH4GKKNKX3mto/1KzA5lfg2MzC5YubFIpEuRgZqXuZthYC/jG4hy91kBFZH9asfkH9l5zqyDwTrpAVhQem7qqMyoWjhMVbmHZRS94r0QuOyEKsMFe0eyh2gQqLL8T7kYYAVkPCHbje6/G/7/NcEWDOJl7OUizzqFEeI9MnfOxWfIWKJzT5//u4+LxUKd+FNxs0PDwIINqbrBv6ohZ8gb7Q2j2d0iSej9dRgdqoiOy9WrcycXVySJehepB92GTvGmaID9fUuvQuj20DluACNznOSnbgCtQ71PRiWPlkGjXhNDMbTj0g0+Yv/emlrDKyGcVuMs0LBJMuY0FK3YoAdrg4yDuLWvZedmboyPChAUXS9onI96jjj/xi1EEJzv8i0NfxV2d5et13fo5LaLUGrad6O9gx22s0RCGjmW8zBq7xq5zCfXlzQi7XZbFqlupy837vnrv3v1c8OFPmKGd+tTbrj/z1MJMQbHG9M4bvvsJ/ypb34V5YgaRCrovFDIzNTS8qkqfVHlRoLbspB+0e4Sx7MiD9Tq17/Y1/w8Yh7ZSiOCPbw/hCVFdTGTzGIHm7HzBLd/P3Qx6hiALHXEN2/8dfNJK7/4c3er95AOYSD2iixpFkT6vWnX2XcWAo9oDtPC5EIXivHl8Sa/NV3kshD4iy5jZdvzLZlvFvkhXieBSIqhm5yFfXgsg7LVRatuqibE6FNYCe2LXG5aXGMiosdM9FjVJtN2UdafhHfYHK54+7FXNpK8JrLUP1uFySFI9pmby6L6ag1UZT6aYWRzJL7/p//rLRWnKp6P8QAKK/xUpj1KCEBP43ZkUBbq9zr3gS5GR41lsvxuXh3fkvchDz33NYXSq3YXpEecRINgCJ9MvZovllKtL7nmXrlYkwNgyPgijSTOQcCQRsH1MefF9l3paL5kZXNYk8WSYBgBFlC41+FSZtbuSZ6LilVVw/lpuRakuQNGG3xaQcmi/Us2gL4uRr0dOYgWplFWx1ERc7uOVbi9Ayd3IihFxy//pEPc6R/mfrdhdcaUJHYgvxcfVIFnW/BR/JcluFOltmXvSfZFEyrsWGk6xKudKbLSLcNabpS7lozTgN+FjOWZeEViGGvgONrHa5VMOpbDo8QUt2Sd1452KAMCWVB/LNtskJoLLn14hmRMBR5zVtGA/ora7iN7TRPlPQRIn9v/Bu3vN1akCPp5iKeQLA14tHcjuZ251bUabxnaCqFlvWeaxw29NIws5310uK29Yv1sNQg5SVBuid1f7nRbpwXcTx72JHEO+Xkdm0eSraKjSi3ZTQ2hLNZ8L2vW/CjNFFi3CcuupdXYUv//dRadzo7MJtYajZQmMEz65QWKUW2P89YyVKYjJw6M8Qn87vr2eqg4b4TbMcOCn4RZgaZFK8BXS0oq/qz+r6e84+kXGkwJLCx4MMTrlOM+e+Ad+6HbgSonRUz7OeRFGwzxuGOmZrl18rVIqZS/XfnhiitnKGUTtCw3KXeUEKRBG7UrMb8NEye+YH5TmVoukZNEH1Ew3m9yPF2Y3aeHhSszNwnidQnX6pY0XCEyoWizpGqC0+T6t4enUZrA/vDtVr7jDjL7vMtQWKf0IzlSSeIpy/NRweUjkm/wcbNUq+/JLwTxhOz3a5u2ujgQ1vF7a1ODGFD/q4hzBr61/bsuaUhjDHZm+SlFZ5sQeSH0LFpO5J/gFyTzQFxA4O9pH/MYvwrYkSkK/v2qSxfBMIe/7JssfrSip10FJW1cFixzO6kPh7cnQCYNzmwEOnbjSUbeb3BM9FEBkCZaLrELfG10qrwGnvyvwTf+K6CL3USZ0Q91INTrpjXaYmfiUXsfbXOxVvFjKq6o2iePwp7mtggCqdPrxXYqwOuZHBW/izzgTuLowjTe4T8uqaMWCMZ4uZg0SGlYXoHTyG/cAQZDqU4bh2ire5XFVbQdWO6Jnz3rB8V93Z613Z0NdzCGlFJoRdqMfEz74zaQ382qtgnS4/PQZ/PUTdimzC8hB3dBxeIIk79BvZmQWq/cSuYgYuRKkUT6sJjnTNtpR/1n48xrVs++bfZpgPLMes1cklmZXeOvGXHsTJO51SUXUZAGV5tA87zDvw6hIawOQMgGETgO1HhIDfNdEFLg4mNOBk0DuYifyqG3q4gLlsoXpexF66YOGP+wfStuCT7Pm5Or2rhGjzOw0TR294NR1J4yB6B/GBvUdmiIl1yb8Ee9lWbVhROFU0lxVlfLPKF3hHcaMXAkKBUzT6Z4wx2HVUbPZQyAT1EuKLchzfmqgj0hcptiBq0Miln8bqAzbaXCqk/fJ5v9nfT4hgj5F1ZkvfRoVhIPDWLspA7zi0ba4oqUgmpzNeSxZ+8yidZc3oM31lQxYoZZzR0ELSlB4ML491DmHZ5mWqkK2TTffZVUrsAVHn7gOKfQX8uXA51Z0YyIzL1VnP9GCXblviL4ke14lkD3flFy27LZg5xyjtZq9KS6dgK/IjIT7N5GTi4M0CYjnwdSs0Hqy4S/Nf/Gu5wNKXYhLzVYX9nBjJ1DhvWthqgahz2p25GNLpSakU/cuBGy6buCmNTfyYa4SzG5npV13Nc2FVWNIW4Vr+jIPu6wQSx3TViUKJ3HcaI0zxD1Oy++80jQy1iAPMgiP8xpAQVXAnZpfDYA6uXXfl0u1JrgZrPdT99BhFjPIwYcRbj9qrzJHf2wcpFlfK1L3W+5iLQ1YttMiA2aWypx9ItN0xeU/4cjz6rH5uEBi/0kYWmNW0naS/TCbLoa8Y+n+I3wfSEhW7mGRp0k6zhdOBees05P979I9xm3mKjpVqbDkt06jmVg3atD/z1JfKqE55Rav/rAzDMYYjR27kJXOmLCWTMSBkBjhIT4af7ZaT0fhZPbvnvQkoAcs0D55JktL4SXDzh3p/FTCrSzMaJPuYSqNkN9XmAAEbnODOFCsmEFWGx67Ms2O+d/Ip6IfeUkHgl1Bs2lmpfAxKaLLoclU/OBIaamEzNkAtvyBYq9Yrpw96tiLLjj6RHfvW4loVlyxSK0GoPDCGyk7ds5vAVbVWO5p0X+PBTHOnblcjF5PNAoZ32pMs8u7FkDhIIGL6yf1nFf04Uo4TLwVc7KCA7zX/xeK1cewo4kPIZ+hbbhbgyMhGuv2nU1lsSq3DCmIerizRroz4CQR/NftoZJFUfuS1FIOh19hUcdB9dcaxsZRPT5fNmt+XvS1///gNW8RsXM41p8417fvwUQJnxUYM3llzsQGIYJRPFH9LlhmjT7gZ2Qw8pNkTYpGLSEowgqRExbzmTMWTpAe2QanDkwDfOfAOXRS62sATS2KctR/RSCcceSuolaB1P7X1NgTXFwQGsn/R0TPNHFfCE5Qg6c8F3Ubi+C1DZvy7DnBJbAcaIQ6LqeLbNcBJVE5Om2CynvW/SoOzz1eR/68Auc45sCIfmoNjZiB6DoRuAIvgOcls1LzgwOACPcQmHPGPtwwzXLie/lOJKSZk6UtUN5wgswp7mnpp3S7XCwLVuGVa5t5PHU0rcKpw1Hhs62Je1b8ohu9Ec1WePT4OBmM+QPM/hJSYeG0YfkW4r7uLrBtQcPRa5iQGD/GoyISPcEV60ISsZPIFXdsbPsBa8JdnvbhesYR1Am/bA8Zyz7gFcSfr4vtQDU4LXLYLbivaI5+NKybke+txdu7khXl/ifN2kxalL7vwoHJMqUAeK37SYBQ4TXUcZR+KGS7IeNXXC8yeXVFMMTDk4hwzkE2Aynad9pt/gyapznRB0aYsCezTCKSPUBy34rkMKXZ//5NIC+7yGSYpkjVfxOgIAS+E1BFZn90HNPekuYQ7JK74E39rTbxEtl1cxAir8DN46TE9au8zBaxxqcgf/4IBZl3XHcnrYK0jt411EDvi/nTNi7zz1hViHiqHovfqZwJlkWVf2ykunhVxNQgZj9CyRZLUOdXdduErLuys2erAiikA4oGAGivN5jybIRNEZ9dx0sJ9vWGPYJTHUvhqZNL3VFl4Kne6JbG9bZc552gnfosOVaAKQRjJ1ZlR/aD13dP6+8Xsi6QU9/sqBWwhQ3K6svLwXvK4TFK0W2d+N4vu/0AR7JAXBdYlMNf+cPyt+e4qg44/mwYg1uB9fMnFo4f456XxvrDNgefWnHE2kF0WGXMl0YaGOmaEuXUtXcXeBuhnO58sEX0JWB38mnxCsWpG1AXZ72++EJFhkz2WvblPw4PlSfcHWqtVqu/8hiWPcUb4zFInrJh387HdqE3voepV0LS0BcfGMAi6LOoNbKRyGsbIo3447BGn6DmjLPM/rdu6CUMxEaMagq1VLK38KUAXq9QgopKnJT+Q+i/73ejhGJ2H7qAvT2g8AoLlWdu3kY0RrP9treGbziYLdDKaYjWogFUZgoaTHDs/ymu7nj7nRAuOT7N+hq1VLDmJkg0SuXi6ghAUK66bkMyiTGFslWuWObT7NQwXHVAzHwSEsl9thTI93xJ5RrctmEF7Ab12k1AwGzwyxB0URvA6bsjhSQnURAovoZ8Dytw9qsnuz8ruhOIcrsUIP9mVb6rj706dKV55XMI4jK0RiRjstCBXGuzkt1wKUgsOBzHK+Hhur304dA81b3x285M/wpleaRiVKxetRBIVm9my/Lb5IP1NXxpn8eAUeHDMZtdghe8bXc3xY3Oa4xJcfboe5Ks+VnwqHrP0pGjtj6j5+R82KUt/n4SjH7HlmJmaWgLS4YlAnYjGcG6lUZjIxKfGgSMiDbtv7yxKOtwnLmMkcwnuAXhKa6h5DLX592hWUa2f9ySpg8gGZaWIefwfJ1AGUIbe3b6LRjTGdNbDSULkWTkEQVW2yFnELKYZSOOqhVbhw11Hak9oM/FNdoAnlQImfbvYPVeZo6qU1sV0gZs4wkOEhFj/itEf4g5mQWuml2F440zZI8ya0ffnm1paYv1lOylEVdoiKss0hxfCwPgL+542qKeZnYTk2LS4Ix+mS/pzrBGdvpNeh5Mkiqeolb3t4TgH7TBIpIzjgGbLWWq25gAtYyT//9AwfSM+hYiMEQ5Z5v/iIjguVdcdeKpqtIA6WvnQP/8qbqIRm72v1c4fY0SZ1OliCiETsc2C2U1V6WqZAIMpMfgCH4rFthHQ4pkVv/j01qUicqbLgMA+tub+3Ppaf9bLFcwAUVS+GbrUgQswJHVzzq5iU3wFOLB2v/mjTvwrdkPk4WueVrWmmsQsYj51eSQfGOGj3V2LGULDaHDQJKzXQmI3sjb5L8OTKGcMbx4xGBauxGDqKJoeAGIzuz8j7MSOkf0chOX5j1xtCF6gq7zhQj8l8IwFmt2FfRWp2K4eNL+qgbsE8Dv25qaShKoa9EuFf8c1WrPS47wlzgC/poWMhpaGn7o5zqz/k15fvg2H6W2MzOn6qkjaWMJG6jl/TuvT+EYMtD8U4g+fUxcf1fI8XfoSPDCf/1wU26Uh+fEgs/ZaguEVfwD0vpLRb1f7pmJvKzkPx/9DWHDwRZRUHDDtNBjwbkxjw6Tzmo6kZbw3bAsTUDO4eK9NBupDW+CEhPMQEw1fVjkKpAXlI74jxbWVtq3u89YYQFz2+ZSYcn/DMRNqAozCI0RssjUe16/K8YBAe0D8zggUqkqRrKcZ5QGgyS4RmDyf5aELHGvRgdjUEPgh9qYGORNtU38CyDLvFl9OZKmCcmvqOz7ZwY6EhkAL+uRpfaiv6NbTK8ETnFXJySTJSvQYNRIEekCSQoGJfK+4x8jeJUBIxJzJf9eAAo7WxqsA2BaUv/oVTvATa+xN0qfScB2IhwB+kHQTyjvdLQstYwn0sWu+xXgZvJMpjuYzchiowiE5pakLDiOmr93UOSoMqqUA2vsIhuOHnBXimjICJMKxtced3NzZe2bbRcgWmkUEcK8xwQ9wDd/0uhN4UTp55HQ5lpmm8g1z3PO9+Mebwp42EdmXawtwzhuFCO7PeAoMNFECvuktWsLMBX2JMlJse4gEOLXZ8cWNP3eiG58IgC06g4nrJP1S1K9FCbL9hcNBH2lGF3r45H7z1jlV6QO3LypAUWZjylxNHFtmNmebZvaCvPwj+Cxe7GCzNd7gJpSQDI7PZUfiQnvzv5o4t3/YayUkr4QXRBuYCmBk/XxrO5SGNr30md2HFpah/25D+TbYjOWPlDVu8PGoqqUxBCL6LX9/DSPnomsXlmFUloAujuULnZHNjXGziUPNUj1C+XlsYYz6/2D493JWU/SyCHPJa/AIVqipRnmTvfeP9Ptd3BOohOFhr/T7hKj6Wi01vTDAA6GKJKo74bEtwUUWC3jP89vG8q9nOVikT2uRDsiEKg6HZnopw7f83AF+oRQ6dvR26VYMIBsd6haogy/JtUaWhdd0D/v9HPn0LnDOXYUhZslhaEkGGJlS7v/8KNZeCfSJUOzuRulx+kR11MWLMD2Q1qA4yMUKw8oCsQ9mh4OqxRHmVG+VgemOvGAD53ZxlWIXTxVX7neGTtHMWhBdycm/AnKfl3umA36T1c9Mk8v53A8easkvq2pKbsdU96sLVOuXgLMk1T+WLgDM7lh9z+f3aPTSIV0A6sUHl/+gnrEdWpndSP3ihbAX1ER0WYwbvZsmeO/KO3nZzP2ASvjy7Y8I9vW6lfjr/4l3jKfKf/q0aLMQv8dC8guUqRcuzGoF5xLXyI7qXaSPGc+qx5NGhyPBfsHi2dUdzlqOHcpthtS1JAN/ZNAPu8ly6ruLj6P38RL8PVE47iBYdaogax45jfx+Xi0hpQ8dHGb8tiij8f7v70vg+SmEA07Ny4dB/yrL16tLxuJYBm+3vX5tp/eLRPfRGx7mfESntu2WdT4/dJaHlhsbdq2e6KCb8U2BdfB+lMmrXuKOAwGQna4FkYjzFZmYNvIl3JneAA06BjdGcmgRJoyhX9EG7AkGMSlIwV7h8w6zI6pph/WnajiyaZvPywhj4wLSHF85C56lTdvbAStIB/yv8a35KsY5dhip/L6q5hFBdJDV6CKCy6kyl9uIkNQt+lV4/ECs/MBq2tHueCRE+fuvOzUsPAsuBQgYzJXmmehRd50P7nd/fX8as3gIyVIMhr4xRURc6M0DQ72CuXrKIba0XArY3lCBTlQwvKEf/0IkfcxQKNHPtnoP0ixcK/gg0Z8zuY6bWoBO4N/q7o4E+hy2qqYxL9fcKSy7NRunNbRC9c5jOvZw22VpJa+KYbP1C+pmmPhYctXhYFd7azeQMWPmWRwx2rfb4hl1PBtZE2+cGudX7H70j2eTAZdwL5JOaeKRsyYOmRjPH+BsjZ5HGVlicCeNlCb6FpG3487v2bZjfva8s7707HXh1U8MZH/3/K9WwfhRpj6c4S3brrH8u/dHHVIWiy8988Ku9b86ObWI7lYIQBHiA84VTEs2pyhdZYKVBTrZw6Jna2OCwzvJwMsl6+BmtPJjfdSGTaEj5M+F8BuFvain+0/dfDB2N2bSlALAscVlIt9gGHLbmFdTtthNmGNZr0T49n2eJ2C9nJ3ieui6+TRrYOs8uphYjQJKD2XaojTOlt9fQOFE7ibGlepI2PKUmRKzHGd4wSCsNsCBI8JopIJ5voX3ghy2//FT/kr3vGe5qEiJyFc7lixYcv/Wuzohq0K3fzu1vXF2P+qAMyzcOmRMAX+azMl5st5eEGnrd8r0iMO+Uu0dmptYpJWMzDazewFjTa+ez8xuU/mN8W5muq0jzVMpCODHRREIcpFpxd3EKdauFjK7N+dxG9q+FqiQ8j/u9JljfcDtc31NNWDwvQvobTh1NOjhel2Q7BiQVz7yPH8ReP5dFteJd/c7SqfJogkK2ppPuVKSiu0cRcucSNy08vcnLPpi9aJZi72EZbdZLWTD8OJIHRCugT6Yi++ojqyiXpdPfV4wDAJnkuyDUFzK+wfTmiKI/Qud6iKFH6NshKA84jd/JzE79Hk3bNBGarRymzXL5W5Sg8QK4Sy8SycgrCAC3v1J9geY8hduE3ITiS//+4iqsYp5vgwaqLtkV6M5cLqFgU0VPdeO3iDnIiz//O2mTpRfjq3HG5XDv+x720e+8ttoDNPDpLfW9SgT7hKK59cOniRKbYlfiFwmla+uICup9GLhwaorui3/qKfDSHyppyIQdmGVuLNSCcT58fKgD3qxq/nNVOozhTWKN/EdbEqiliF+cDEjsfRBNyZnxrtGqrfpMAqwCCGwMBTpwUmQ8BfH6jnD913InK+5ARAAQfs5ELpg4ZOpUCK6aMlbOwAmBU994AK7i0MKhBve8PwH6R+2AL5vjlYKejF1hNbSZ1sIqINSw6e+BXpvADien/rvS74KM0kRvhrA9uaa4e9InXkepDu//dEIeAmQB5+GfX1qJd3r54V8NNBPfvkPqg6EcoIWRbcATXF/HOKMNejQAh0NRkq4blyPX6NdLBQ1fQw/73dVNJwUfkUD+ArtpjQAxN5ysMi3e4zn4eXicLbjqjyLTH5GRP8sSbnkdLwwbfYnnpeQYhKsChJSWvANNSzLs20nUHXRMJLL6vsMItjkKV8RV3Kk9hmA8jRaAbcOJWypy6+XJDv6ZaMxS6CpHe+SW2OiqHDq6fCIHaNxTO5lWV3efvcYXfRowkNgAvQAwfbC9xYNpa1dDmAUYTwjVNjLOvm4/3jyv4u3GNlHIyqSwS/sMaXBDmRVf3FWCdCY5HGbyd2oLjW2gIN4cF85ZtWT0R8l3Gfv/UYWEacsKXewuJ+F5tLvaEJ63F62Y73iGwmZ+t3vBzAHzEqBAMiQTfImBOvbpyTEaAtvtsC/54SpxHLNfRiVZl1QX9Ckvl8QvDrc4nX7ijCtGY4SBecLQinXB924KdYaYTtSqRM20OYTy3GmMLcvWzBzjiHo26TLJ3gPBbHaAdPbIghnrGGzwkEtEFL4ABvTQ8+iw+MYpBXpWGAskYEJhOWUAX8XaC5SWZl05ojq9rcsceI41Tkfr4UswHCYERzQXfQR7Celhzo+j1LfaXv1aUclg34/Bvww3osdudSuAfgibHYd6sBKjlTttIljjC0P1EuULATM1hslGaYpfSC3qbA1fdEOqmztJEXDBVKPfoddjTwnMyjwyaPVGCsSUy39mdUDehArAdcBfOIOlymvfMLY/kGOpGdCQwX2ynuUivXfbuUpb9Kdt9ShUC796eUevywNohrwFuLPc/5dmcw+COUUKcKThvBv78HajSHAhYYGAAk1vXLqp/N8ca/8LanNzQgvTD/zA+ljbpJv2K6xUAJHuPWcTCshvZwEbcPQ8hgJx92U1rGY3aD7v94CezNRjJ5UZ514ikw4l4Cg4wQEOgsUywCy4pVUpgS+LWtkIqqBP9gL4Su3xhSJBmRio/iq8VoAgMnc1KVv1ZHx8qdhkd2VG5EfouvXz6AI5IJsqfgB8sNn1kz0ui1d+r//SXwG/YVt9l3Gz8Grx3xn6rUBPtg7TuyX4zkycPH4fsxeKWq+CGd9J7S7pNqV5ZOlFtp/IrILMsNEpszGDAqZ8nxoLkLuyIgkzm6hD94+9sN9QIM5AbFPRQrHzKnsT2cUMDog+0T3aYOTn9JImehe9aOS4X/Z7kQD3TJe5oiS3/Ms1gmSi/8oKvrdcHOlzO4l5PpVVlRhQBUThxIRHDPK/F/2yNJr1mGDyyxCWi1PwNuGWAS6XE+KlBOum4wlLVflooUDRqg7tDIRTKoDVfC1Wy8/DEV+LI1kmJ2Y1w87IyTRXLdVO4iiSb38cRqG2TskV7UNM2uqV57648iGNg7Ohg+7tYr+CJiTtdvfZj4pGD/zg9oDoOlYAtmX7zrUHzd2Evg5C/zY41wnHKXgTO3iBn5VXKn8PaXeqjxlj3gROQOTUgySku2rFDpvQI1U4potc3J3sXg3Zb5Cy6qP4UAAQ/T/8CnIvhAEQxTH515srjr4rAiSTbeMLWsPD+yqx++G9PRv6XSgN9uL1jJUvbzgx/koCLhWsalGrEXIRBqQKoA2riX2EFAy2DZN3mN9BS/Olx/9x83CxivitWHhtgGkkCq+33PPdib3wW5Uec22Zt6LmYTAIq5W5bMznAFsqhrcowiKkbb9y5DQY9aR85CpsXH06LMUDV/O+v65MkH0DJP66vRzfgYpYC4Td5HBDFKlZ8Z64zXeYyYpEJTFIEV0QEa9bwZl/r6yNi74pMfxmWJ+JHwlRW1auIUjnxFwsIJvlcisdNERJAf+U2CU7fGKvqKNzaIrNSxs+5l9Z0OTchY36PrGeXadplKCB3u8vVL7kel3YIGDrjugRYm3A6R1R/qUlZcCDq1zm56XgAtcnZD+YMppfSxHLJwTePqlgGfmi6LZ7nDcrBO1k5ubwMF1hVBejBAx9GgI3lkjM/gnvE4Gmdafv7+H/5xX/joWrSZD2+C5xfM+W6B74/3hnhT+/FiZLtfIsZjbryU9bVkwYRfIoubYpecu9S721aiQe/bil45M0tsPzhUiLuUu4U1INWDOy53XkIa2YLK4ejeuSXxeK3x3HsHay4lm/pZcOs2jnSYqyLb2rdxvAPhmF9AajobqJOSf658Naw25/05rYLljJK0b4HqB9mJeXZMSoOFKtAiqOhTPvjyU3UqqemWgVswuVa7mppMWylZDhSFLyMIO3PD3PUrL2Bpscn0owOCe5vBo1smrreHT1Brw91Q6eOkRwBatili6eOoHo8wPNVJdsd48M5LuO0xFLorlvK2SzWL305Utu3i7o0CwyiT91rDkXRM5V1XOjeyrQemQyLDGOQdPvS5RtBHHjYAd18QjxgU4QTTFZrS4kTXZgPL/VurJSB/VrHPQEvaLc3MdxzI6f1KuF5xGRdVkrE2Z22DHack//+uQ6nazXU7IB7T40ICA0fCVFxrn/1/UCJGQeGJZsrLXlfHLmUWZG/2QYRvdIM8aEjqqZXyx0Dvjs/0u7z6o4ZLhMGOJw0rLdWaJKg708eWHkfuvB6Va1HNo5usYAdIm+nbTK08CQeQlUnMkOH8SazgV0FQbwr5ajCzuVqri27ZajpOGP/OgKv77GvmVN+OPgMcjkVkYYMZpwgnHgc7Ktp/tcxengO2OOz6PGv8O/CXtn1VCNwOZ//vHphLq405eB6OcypcOzhUfQaPaHcwSO7sZ+l5++BjgZgETyoqCPxt/dJ0FKSJ0PeUgQZRAkh4DvQ/Bc7nwIruHtGK+Z+3ijfFRm9xfwhNOCl17Ht8TqoiTCLDtAt/ZV46QQ9pHshJW/bSFlJZ2uwIcSP42Yq1oihR2YDGdtweQF3w82wjtce0EMQ5jLermQVRwCkN43VHFE8f2iAigkso4UjvaMJlWDFQPZz5jXrAcJeqOKIguaDV/Q+Ty+w/wv1LwcBs1UAIZmfvbri8niE1TkhHFEBZBd4jr3Ui4A5IOINGgThTtc1Nuxsj6zyrkuVzceSQYwFtlWUNvq3bwlUp3s+fxGEII1rGoUvAfF7l/74Z0lGWvole5I9lboXJUc340/2F+v5bvQny/mfbKqNLaU0/WSWFF8HK+LTFPu0uC1f17RSTIMsUBbAmvNNK7df6ZSQJnu5fH/x26N/n35sEqDhG06TnKy9puRBp0uJwafvf/0u7sVRFWz5RShagE1Tej+NKLazPvjizWwu828FJ+GBnr0zL1jpyAyKU4gjxc8ETIIvaKS1cyU1t4fIzP+aVVTjMvBzMBHYnUaHC9jeh+pwGurcYR0ZWbkQtqNXy/jfXirCUkFfZx+0U8wP4IQ5AaCUxesCU2AORRbD9MuWsU8aBxP+l4zJIwrcalhdRuicfLi1q1rOBS0PLr6fGanCjX55fUFGvtS2rkXs9XW/NJQLePbd2vUARMu7gelAN9ebdoJOStYkuytYwyVpEoDpAgtM3reisMze+fxWbNC2wG3X3BVmgIOPlX9fF8ikAXauV+WTtzWrmhU1aq5r5xzNGATTPvefJkHg7KEkjmfflzgAkq8+eY9Q5lk15mGQXl9zF0mTVWnPBGPsRdLSV2U+oYEM/lpEgxUo/16Osm7GkiCOF1klmQ6CdcRq+jHfA67/b3OCG/7MrKql1cXB+/kM6c/2OO/rJwqTbFNhDq8lyynRtC/LC3eqdugylf6gUAqa9PWwMUA/mL5d1gIUzzUJbNhqCoTB4Nb9SwiBbS+Z3t395lgasmPXUt6lC94tr8d0q5JKa6o189XrKcjJiP4bKho+vrM3zAl/Ivh/2toE8CJe64D7FsvN1r+a4cYk3hhVIDukEgyPAUTtItcsnl3SC+cqgeC1Bwar+dW54MrRUaaw0HwrTNs6PVyDmtKe68BqLuqSDbS8imnOJYwAaRBJ3MzG1Q0/xI4lAPc3yobzCBu5ZUMYAohOo3LeuuQMj4jjjw6h5gQFsHRiJXu9tG26/4XSiZkOa3OH3ncqJrfzwfhoo7DubPiKhV8QYiYqt969P+3jm9u9C6pwvnM0E3244nPWr6toqp3t9uGvSCtTiJl6ctfTkkULTy8JbBwjAzzrG/7tLdeoaEWUyIASizGItNaGpGB06HQ+tQyscf/ot3201vhzsJt3W+Hmehf+j0e464oTJ9cINt9Zrkze3aTixH/95GY21r+oGYxCgvKFO1YnjnsqGMABVCsbB6o1Gszjvn/48XMDP0YV6ci2Vbpd2ylu6+trWA7nWA8wR6L3QXEjQCTLomCEJk+ELGRav2/TcjnHOjj/IUbp1oGSFRHxnmiVpDKQ5HwQTJpRUQtIvMLR8D/U6xa/gWga6ce2NQDI2hZzUxsAliqv/yaeCaMVtZsXc4T+ALtFENjXGAeZqqPBWwcADpIOsRmQ8TfWgxvaBh5cfnJTUJo9jAdBsXPdwW63d5kLAIs072F5J+mfcMgnlAB79zIJJzGTnT2LCIG0d2gO0nI8rIMLW9Y1tHzuSLhsaNKtAjyvQA9gYPN99aZm0R4t8pVK3cDtchDnmYKDcHBP8X+GBQoIrG52lyjb12ocDFykS6H65QRlyEn0nzwULPef17Z6MgU2Nbzoc9BcpLKRgmTUAuTXKM747S2SgZRzCxacNH1tpgH0oz2+mgI3BMTfnKcFrz2tjYq0T4bmz0j+RqdgFpLBW0hdtaLsZqstFo1QXg1CDA+ggfpK4rHCBYwydV72/rBdMJW6YOEjso2EkYh28Hc/0P03TV/gmyopwy7bnEHBZnOuqJS0Gpxjn6qqBMAP18AWPnsCQYKsyRuZ9bUbC6Txd3agl9poQJYgDRuR4jK97FaUxDU6LL5HAmhJj5ntTuhS/7pv6jBweimuWWW7zGsD+95Cou5p5NklYDNE8rM5Q8xQSPXdmU8wgQLzOP/OUSka2tuD0yr5HW6zDenk7u+DUzsOvJ9ON9lYVQQac7DrQGkr5praqEqRfUW/JlOT2Rt4tUu//3OlJkle+SOv8d6W9vPbaiyv4Bdi4XPhGM/+QHL1KGg8AALS2zCfJulq2o735BvcwCCmFhvFNJbVY3VdX3IsyuvZE0xXdDfzbXS3OVDBypHeCjdWu9pJkzK6g+kq0zrdJAQxRuCamkozhRAleJ7U2e56z96NrNEdT+dtBe73a/UGeuszLOx6mqajBUs2bNKn/MbRxO5XVuQxU/l4+VIv6zcojqzIsjbMPvxfCgokmLPuEfaHlgYJgT7R7dvvxSrCi+10v5VejgSt6FPIwv0WBrVqD4T/yYVIMAv51GMNusM+hiTq8N+wTe0km6P8zLXv+CYXAG6EmYIzmQZkKmVjn+TEOf3B47YLMTia7Qi5DFHdq7AsvV4dnEyMuNebzp6LlrAD3Y89dJHeOiezMv81J7zWuTMu6uUqE9R2ZHRrm8/JoJetp6noTjfYMMCELCQFMttt1lX1/bmCBfP+iN8/SDUFuUHKvNtbasYNi5iPXVKJb8m8zV3HiNVBA4ovm5VQDGveNQQX3LKCY4Zcm2CU8VjgOPksbmh5HxWBw4yr38f9tuAEhkzQthtmPEA2swXgo8fNQV97yfEYxoRf9gTP0BMtNDro01s5vtMtisiiJr4q8cPm7c5ftHb7Hjb9W5E3G5kiFXiu2vuufHUEthhuJd2UO181MG5cX2H1yf8jHkGMILGhxBaCajAm6cyZdHf0sqZk5Q8SLOXEDlfFfUCnQJoIoDO9gDys8VaQrYu/mFnyPdj7cgHye9Mtej+fjBr3KMKDBJ7xAMu+vzosGngSVcVYHZb2PEPioTjbJVoCEm9LP/7xdGO3+kkkljt2duR9KmC9VookuNjL+ahqssvpwRoS1cQAjo51hMU2dJx1YTD5CFoZNVU9tmva7mNxSHfxORfmm4yKtSMC5NxDRY3rnO7PU34Z8t4Y0IeCSJ4i6z8RR4hp+sLq53N6UPiIBAvLN7z+N+Lhr25SuX5Qi1P2Ryw1gDTGE4wO+DczfmzVg8HaoLTcQLqjePS59mGS7k7HK2eiaParzSA/WoJsOTB5COsrsrWHW6UYx9C4HumvWX7HE8UrMKOPVu2N6fGOZR/a2lqJkCunApWizu+TT6jVN9jkTu3efb2GHDdfsEe+supRHk3xyoYtC7tQBrmg9zbIJ/hOOtPf8qi6zGyLfMFpphWb3mqtQbimMVJDdnJFDVItNoFQsg9vWN8IoO0sjZbHHMo5I5wQ7ovZWJYXrMnHgvVBsVsholrGBFYCQwVQCn5bm5W6xqY5y3KWW8JEthAUKrB/xZ1g8szo8tf1+FFVbzdTBJiNEiVcx/8cy1HNvhSP55HpxwIh9QeXFFvUa4mU9M0gFYsXwyAzGyVByvuWr6XuM5sZE1GoTAaIgXqHHlvGPedH3dl2Abu/Px+jLQLcl7LUcN40wiMgMyfUgo78vuSTIkDQQ88JyVIznuoXqu0KXjeXy7TtYYX9kWkSvroRnvtgMilxghmNLtrwvBQ0kxS5efkTZ7KHoIsEx3Bo1ffSeyjHkfR8yhX3A/oYKMfgv394sWljEZmhdvAaeT691zayOY+qigVqjqeWNptICdqKYj7D0zgyujXTCOinaA4vFvvKap6weMbiwSOJ4LEgfEbeIJ/ZkoG81UNyyt/ipFxvgMJaD7j2qW5h6xjzrJAHj1Scgle0lRheL2iYW/0HM6QjFEpZ1sqTnmMzX8QoZrV64Vpu5EWYFpZ7vDoYojq/f830h/h/KraECxrvPzx2dXXUI7KPG7H9IvSrvtr6V1jdsVL5e8TXWPOCaKHgLSQEccclGx7CFwKrNWexztz+RNOVUypkIsUkDzEs9wswI81yG4mQrhQG5OVDqd7VqmuPcJaAdY3aHaCdbAo+zktw4KSo9edKwgJQWj0kLOHrHfZPk+pxOJLlOS8u+l3lo6MRLTyXTIsg5aVBo+2iYvOHL4iGfcFTRWNzZYW867mwtDmqL25od6/fzKXPx94XuCgbT1DtRJ2wVdoae2MJI4tpJ0cFkFSTYIuzcb3p8wv/I45hB1KHrneqyQ4wv5B9T58sBD9HgTV8p1S4miw/ygbkIkUkLVa4xFytjTngnRXBEA3QHYzSBMKlQGP+c8iX+okp8g0Qkni4xDvib3BfNTBP7uV7R12efRCkI9YTBgBMa1TfDk8eOIStGuZ5//6PHpTlddWAuP0Jxk1fLHyLuBmvB8fUBQcflatQ6A3OL1mUDMAsLodKc5GUHATawFr7mAETYZlPvYXes3eSJ3G2zV7cl7yKnd/fGU3+c1Q6Ba/PWEcCeoc+qpI01DuEuS4/b7FUusOMOCc9Ua8yx7XxHfuhoM8VmZbnxCA5smL+5rBhpVqL9Wf6jOCra7/WUK36m9MT57EHsjGf8GfABlvbEPXlkl9O8YITtHoQfdi7UsLs7Jq2D9LMYBdbgJyzqXrNtLdwuPP8YXaReG0ZTzJilZZL96DPO5ZDrapQuT2dFLv9V+ZIiHwel8iEEdWOMSJCmim1amWhAaU2aDh8Dy0fBf1JAmv8wXMgm/XK5FIVAUiAqqjJkYoZpuLchW3t8flnE9munwBi1oBYSY/GyWMkBn4V8F4KBdp7sVdIGZ+1d4Pb5WBYdKPcSvZ9LeL/5XeRMqDa6X4cn+X9LpTjpnqfHgOecfwZU2B3NoS5ElDROPuvmvF/UOXdQCSosqk1Aw0mKfaQZal/TNwR9pFQtk3bSuS4fol5PVneHtV2q1K4PXTtkA6FU0+HvlAZFHLpwsKq/nCEPlt/kYW8Mk8Lke4B8S/H/DSZ4bJDNzYWJ3ffeUiJ/iszlQQ+R2yaKvWYonfPkaP5vbfcvf0bQ5TXXwodXzEkt7JbfAtHb0KsVWBXcp5L8hs5dGdm0Zi+nOoH/J2BqmFuhaYL5tzWk6giXc+Hlb1oRjB8Dh6y9EGIuyntp3bLS3oD3kNqQLxZO0bNdNfivviCPG9SKkwuvLsqXts4PT3AKoEPjvwlQ3HUY6U9VufP30Hr8vRjIPJFX8IxiitkMvfdVaLFYetBeR17BQgQ4TfRwpBT2Nka+l+fE4grxfwkMhKJwhsgXsCjhQXQNQbBzi6m4cN0wzp4VaAOxkecUbKcQ4wMGooNxkzbGI0hv7WEz4qV5VxwdmeA6b/HmB3gmQQsQVZ8AG9hlzPuIs6bFR+h6PhtgufQmmP1TcLLCvMpAdKcnT/tvITotV8K5VL5Btg3NeRN9265KiOj0Iq3s3T+Qe6c/N7GpgxgwMCdlUN5bQNDpFhlr+aEYsU8TjXDw+2v1RDvI6oQGJ5o3yJbZKKJ5hkoHsgYmwUi7ipsU+0qzWsxx/jGrrlK564Dc+8gnZKgn6cDKZDFQCIvs2c//B/RvvDunYfLCrZQ+D6sYXRv1vFF3pB0AU/G2grImeksKC+x78qy8Y5oWIHi5vTM+9Qtf0E6k0LMXyhAzY3HYOyJ6YWhrdUwjMjC3FMYDSGZouqTrYKLHBaM87n5WGtYU0G5AMBTyDDKkq2bQE6klm36/tDbctndN1O2ldNfBEo3Xqzw2n2VKF+ayDCJnQn+eNBRXOPeIoPLPfbWdVorGTewOx1eL6fFdD6vxqTwcOJTICld5hBWG+J1NFKgJ1rrup4lE8fDfy62nnKBzBm2bg3EY9oC2gfsKv8Ad8h45MDSxG21D431GLI0uNeKh2xjSWt/eH7ohqEtrZJEQCrhcX1mUufFGcCCtPduBUo03hRPPBP1FTTHGZjCZIVELuw7kp7BPzhG6YGMwj77xpjxmNoJNTjCB8oUsPSjQwsQAxvGC0wIJJP/uM4PJ+alpZNT7AYYitjTqGbD2Y+IsYg4TjmpCc/7/HtznNAfS3CBzTor33P4kaVb7f0H7FTwyXCDbE6OUuGUXPHUTMOEY9B7rsWgrEK6IS1R80GsnSCAys9O0b3Oac2kZCxB6ZJhWD826uoPUZqAIw9RiKa/TvONYZr0UwNKvB8PgtbcMh/sXXgMRaCUGNKXdzT2WM9OUYzZXjVlJFWI54U14BOF+fsiM66xg90dtLgOz6by9sky1G6NzGVUOHFeLV9r075BPSPir6Aifch7H9yxChq7H+tR0NYbxwOok59V2VK8DqdaI40z5xyg2HrvKemTYUyE8msaL2hLlpfMnc3DBTKCjhDceoA2I4YmYHfZMWMUiANig4MylbrlJaxbNXjVr3bw6E03ttghgYkwO8JRwtokWX6G5LNbE9TAwIjcwuJQ/vHwor4xgNnqjqB2j+iAEeWVIe7ilUBjcFvcajN/oGLVBTzopbWpdxvgdv0RZ5hqMVfNjhaE4mwu4Vg0B+YNiUJ7JbJ/HdeGs4vL3TdEGcOOHHWgkGG3H3c5hoQlQiJJhrNjERz1CHIM8YoUs3gTVJB13HcBR408sltBqx4zlveZshUwSsYKsQOOtYjBrxukWDkJofEyXqYkz/QXV3CZJj/03VX67GV5ruoLsMAyYrAZvXD4/t+wFc/oLrfseZT6i/jJy7cunPUb6AZLzriLXHmuY0zLc+DAff3PCkMyx5mnWT5J+8PO5SItBMnu0L03AHR6AddiHE+a0JriszoCJCHiSaTsV4p3Ita3qeo3uJ2Mv34d1YLjYt9wkyqU4Ym1mxPK/HMN/wOkAe9PapoTZoBksPJZDeZ77yYEy/cImTbGNHFea5aHRPPjeHJCpcGXGWp7g/8WonI/KGTx3VWIaaNNyj10NjLN/AGy6IhXkJUI1HkjAlFAqiVYLMYo5O20SNgrSroUw8+odAkAfUXwu6mUhNYhfqBYTXIoSN74f+QSxSAMWC3hPtkkVDcvPiRE0p8HCjNfD+2YcNe9kEsD183CMrY8fVeUgg6d2gNlRPPxMABpy8rut3sajUroIKnrGqihlkUJEG8EuosCBIYXAdXpXxQl8liu4qJj0AD8vy3mQ2x6bMlhPrYM7UDyXn8zDSZwLG2qYM6Tiac457TqlWjerMfW99E1H/AlHvWDEYBN9rbGySLhUHjPPEbef/OAcsT3BC8iunOtYcSpHjBqmUVXcRyQDAWif79M38suKoEF5lWo4ruDh6VKWAiTYoDTF6W/g09CCCQxZDZ/A9KZJwYDYPgoYL951846MHAqFXatT1a1FZWJcINJwf/RDB7qd1VNLrzP30ql0eRJP0GjiDPVCW+mcAqMTkEQgutE97DW8FcCyLuiR5LdxB+HsPDomzKjPdCS5LZCJDOp4kBU8GuF9rmnhRKIhPMJBLoWTVJRtwf4i6f+fDuZFvywPGPmootGa/Y4IWcc30IDBeqo9KD7zo/YF15I7zNL5wDYzBnHJJddcTwO4/Nir8Ddy2QoIR0CyQJcQv6rddaWodp9oZfjPYvIHbhLekuCadwP94hmK54SQgCRD/3hGnAfc8XYP/3v0BshZZrqHJX9aq1Cy86Bh/4dOfTZpqO1MvfAiSZQEdsZCPQ9P+5DkyuG4IWU2e71kDXsjVOAqv0at7dgI1EgzEjHls2dA1sJZXMXdr6OcCeEpukLLB52gv7qWvRJA0NXDZaQ4M4g1SUo+Wo6nT5hV+yLFPo7Y7nwbsHO5wUkoLi1Y24EbJQqWay87pZsLTgEv/PJLDDsVPVZcz4O3bRHO5LxEfVIfExfMDTCCCiGBWrJ/HyjBUhzhGHyeOR6OmC4tMjelrli9PjQQH69bvcZINU3IMtsfgPs237dA0E9XvoPEOakQFvuaumN81AsQzsmMxHkvKWVdWzjPnvY8onnuvqqvyVTdtCzkWiUbK48Rhy2+9UwA/SI4vUd5BbJ+k29AGs95RRNPyViTxiq+Z+LMoFKdCSMxw1eqTjtOd8EbsnaKyTcaGQJcBYpFGLMTazn7xbyJolIODTE1V4GnnuiBO817dgiUOnSJo8WqzL1E/xQQqnWupVQfPoGwng7DgDkf4pc50ewVicLDx6808Quq1smThQDwfP/ugZlmhsi4TNC+3Kp1nxDjYBnY9mu3wbpDHjgLQPGHUpyQQuoKPxcy0+aKDRvFSMZgEvI15fGphVgFnzeEP4rt0C+omUVSeMhnBsjmJYP/wpMrAcKr2j2yg2y6ij50delr4bruC7qdyLdRGWLtx8W7z33GgddPLwsXkxucMvwF4SktIMarWsGMllUF7RLJFIydiEjGJp9SUgcxA6G0NdYrrDfdmW+COKmiUtqQCxIK/ucFsxN7+YsAzQbYH6ObSdNs7kOT4fReMBzi6V9fU1f9XI/aNUwei5NNZ9vQnzVA55i1s4QZ5uCOQrlFSSjjsVUj2AKaLiRHnHtsSbqEFgHwyH3Jk8hSFrUCpZuC6t2h3iO55ZIMI2VPxvT6i9LHO6BexjtaVvZdGCuB26licAvuLGP2QHXvE12FCyTtElkER238VI5thpNFw49UNVniL3Ep84gvTZ4CaKoE/LhDrROx6nnYTvMf5Na8mCQyP7yX8IF0UkIUprSc2XxVEogBNxNGzZOyH5MA8PlH7l47cMfAt8/0Qt4v2I9654UUk3WI2KtSHQ8WLu7/WDnqtyQCaazt54PEkTjsRcS5IBLM6vC5DNIRKH/QJPmuNsP1DanhI1RsNx08Uqtuz5BcwP99AmiwoKtxRKnZxsMOYc7hSBsJditdH6IecKUCD2CuVhhoOilVAcXlbxSRXLq3E7kEoLrEk2FLhrkQ089/2XhtTw18mFqYCdBACrnox9kv5JxnMCQAB7Sh/l1DSQHrXRBJjONYHXanvkMF6GqePNX2ppm1dQDmska+PFZ7lScIQ6Zv8QzGCRr0BEBf3yRqE46fqjjHEbAaOknl4aKQ60bDAVXPr0bP3fUKiuMtEuV4EMjTQ+fQ6Z1gOp6eGWA8KAmW03/F0YbEmmLv2rMvw9HYiUHK0zqPF/mZYSxz9uHfNKuJFbSWGJiPlfWQw/6b0IQ98AuZ/mFiqbUEBcmH4pP11xVclydnedqBgxlidHETKcYEhLFr1iMEyVcUqJYrGa+Fbi185oBeX9eeFs3bBeRR68RiEhBDNQ8pifVK70fhz+TksvdHO3y/NtXQCjipbJY44BZFqeJMRn+xw5T0BPthMeVjMGTqNbO6tua8CYklMSzYlkuLbYIf8JNdPLC+UkIFJQVOAhc4iSfqY+V7ZN7HTRZG8cDLxQgoYHiOqq6BLwuXIo/4WKG3fNhYqyQnACOMfDJNPeKSL5rN61VE3vlF2hn0QkM/wVXP8JB87aMALT09MScf6/G6u31JqMqatG9UgXTmGWFsyqKtBywcpXdxayAQokN2FK1rSSE4ON4f6EwLvFfODiL+l/6BUjvWR1dEXkmgWXl+56N3h+RP5mdyjQTGeiWZwV97tKzeockaY97Me65qtaL2EmOta2I+AnKQA6EnGOZl0WxBZhvQTIYGZupb59x82cjNCn5BT+QEMt2IQ/2XMM93Yx/uSILbzIzMAy1gtUeyqNtoSDWsNO66Z5+EwioV12LF3K7AvOgaTTmnEX7Bf7nluTL+38rSeiQsX3fTr+rNYH+m/W62pCPF0xdaABIrxsqhgSddNtIweJIwG70Vmh2f9w2xfUZTvSTDuXC4M2eaBS3P8Szdz6Vlo3X1ZoTquzIr4UEkTB0fTS+T0N2IuDegDKBec5lprC8xq7HryZ4eQCUhFZIL7L9xCBF9yX0EgjURw915M1bVqCFdkn2m5xAB8PHFVn4aEZKA8E24DKt8YojAS99hc+PQszrpwGqFrYQYQdIVja/jNMp6/45Jk9EGRZuNHabSxEeCTYoFATvjpNUADeVqhGnqDQVl25x4CENt0+h/H+f8y15B3FkEsBTciGgoUWuErv+1RaKXI9/zj0mOm5fOROrfaKNFCDHAFXnJlp8rBS2gGivDI1RQVv+ZWM9iwhrqfAvL5YSZBHfMYka4MxDe0x5dTsFVgv/1oAButM+D/niAUTeTE9LuKJqzLvm1h6E642ovrUWa8myoAV0dZzx/sgRdedO2/uUgGGj3gKVVLjRz8zhGB46P5vjqIjqCEg9cA/TfHx6nY18sPRxAHqAAMUZEF7ahlfNtKw6gno4IyCR+o7ZJyb3YVMBsJxL2PpMfekjztMi1T9USyX6425dnOX0jguFdZ163Nqm1zmy48t47h5HHeupKBhY+hRIdAc6XW+A4hC23hv534/3VUpBvagd0sq8bnUKXqDkqmjjenGECVqkstDrjDmOB8WF2CZAkS42WaO6xcqTX1QpL93xrsgoaA8hvO1KEOwg7E3crgnUagDTa6F12tnGw10QAo3N/cxwbMEUQCr+jSXzE+jrevujsct1sj2fmTGi/oWo9D512kpzDuitz+12dMxdzj5NCuhbM4pswzQi7uSnTGnP///3PF9PwX2Nke/1fouFIC2QdJKVUqgZKo7ezNbh+MNMqcTZXPRXF/iA3jFP+cU03ByDZkttkaGAo5Yc0EqPbAyXvVXaFwa0Kj4KKaaCUvSL+xCH7vrVSyxVlaxsuPyrHLwZ/W/OWNSL40ND/XgtQfxGA5Wmg5+zr9ijfEritNb3tAgprYze0sn8DOEiKAGsGTIxTLsf+BavTbzIASYc5tShSgs5rG9f0zKH/1hoh/+7KeMFveqjPAoKbuPO/vvrb2wBcX9W2aDBA7Ldt09G/9k5/NCEC53eHA4apKyoCP8+lYYAAAA927s6ykwFdSli/6M5E6s4mUO4dTkMfZLDXwy8UufCrXI4eTcqae5UIVfuJrGLeyZvmLWATlThb56WVuvl/oMaNOYMra0q7cGdqRM0F1kjbrNTfjhiQJbb44BJxdQqCa+hwxTBt+ekhYMa3WUjFZ8xoNMZwD3v9ZRf7R5Ji/YzIRQAbazg0+PgM2y7dXOU4BwK4gbdwQf6bHRjnQfWPL3Axy+qZuFw7Z3d6vdFybCPyppnoaNRX2dPfQbuo5uUhpR6pk/bTeqb5K6A47QALRErYLnf79BGBTSnZU93+E/4YwcDYjveE4/jSLHhKTXLwymwgv73LE8D0qHAmvQKXgkdAVqLCiHMH6JJgsLRe3Q3EeYTmLs6yysA9vNNxKzAnJL/sAYZQ86PV5+ADFBtb0qOH7+s34JbyCrDJwe9L82OMEADlXZeS60hkrCkF8TFlnVEfej4Ttbji/8IdB+Ud9vgf9uC1Php8MHTE529u0/f/56QYUTG7IF5BssYL8HSWXdkBbPOD4nNWGPcupgUv5n2pbHE4skzf/wvwTKBLO8jo;" parent="1" vertex="1">
          <mxGeometry x="610" y="550" width="150" height="150" as="geometry" />
        </mxCell>
      </root>
    </mxGraphModel>
  </diagram>
</mxfile>
